<?xml version="1.0" encoding="UTF-8" standalone="no"?>
<!-- Created with Inkscape (http://www.inkscape.org/) -->

<svg
   width="123mm"
   height="122mm"
   viewBox="0 0 464.8817 461.10291"
   version="1.1"
   id="svg5"
   inkscape:version="1.1.2 (0a00cf5339, 2022-02-04)"
   sodipodi:docname="LogoN.svg"
   xmlns:inkscape="http://www.inkscape.org/namespaces/inkscape"
   xmlns:sodipodi="http://sodipodi.sourceforge.net/DTD/sodipodi-0.dtd"
   xmlns="http://www.w3.org/2000/svg"
   xmlns:svg="http://www.w3.org/2000/svg">
  <sodipodi:namedview
     id="namedview7"
     pagecolor="#ffffff"
     bordercolor="#cccccc"
     borderopacity="1"
     inkscape:pageshadow="0"
     inkscape:pageopacity="1"
     inkscape:pagecheckerboard="0"
     inkscape:document-units="mm"
     showgrid="false"
     inkscape:zoom="0.79998597"
     inkscape:cx="208.12865"
     inkscape:cy="246.25432"
     inkscape:window-width="1366"
     inkscape:window-height="695"
     inkscape:window-x="0"
     inkscape:window-y="44"
     inkscape:window-maximized="1"
     inkscape:current-layer="svg5"
     scale-x="3.77953" />
  <defs
     id="defs2">
    <inkscape:path-effect
       effect="bspline"
       id="path-effect3068"
       is_visible="true"
       lpeversion="1"
       weight="33.333333"
       steps="2"
       helper_size="0"
       apply_no_weight="true"
       apply_with_weight="true"
       only_selected="false" />
    <inkscape:path-effect
       effect="bspline"
       id="path-effect3064"
       is_visible="true"
       lpeversion="1"
       weight="33.333333"
       steps="2"
       helper_size="0"
       apply_no_weight="true"
       apply_with_weight="true"
       only_selected="false" />
    <inkscape:path-effect
       effect="bspline"
       id="path-effect3060"
       is_visible="true"
       lpeversion="1"
       weight="33.333333"
       steps="2"
       helper_size="0"
       apply_no_weight="true"
       apply_with_weight="true"
       only_selected="false" />
    <inkscape:path-effect
       effect="bspline"
       id="path-effect3056"
       is_visible="true"
       lpeversion="1"
       weight="33.333333"
       steps="2"
       helper_size="0"
       apply_no_weight="true"
       apply_with_weight="true"
       only_selected="false" />
    <inkscape:path-effect
       effect="bspline"
       id="path-effect3052"
       is_visible="true"
       lpeversion="1"
       weight="33.333333"
       steps="2"
       helper_size="0"
       apply_no_weight="true"
       apply_with_weight="true"
       only_selected="false" />
    <inkscape:path-effect
       effect="bspline"
       id="path-effect2802"
       is_visible="true"
       lpeversion="1"
       weight="33.333333"
       steps="2"
       helper_size="0"
       apply_no_weight="true"
       apply_with_weight="true"
       only_selected="false" />
    <inkscape:path-effect
       effect="bspline"
       id="path-effect2798"
       is_visible="true"
       lpeversion="1"
       weight="33.333333"
       steps="2"
       helper_size="0"
       apply_no_weight="true"
       apply_with_weight="true"
       only_selected="false" />
    <inkscape:path-effect
       effect="bspline"
       id="path-effect2794"
       is_visible="true"
       lpeversion="1"
       weight="33.333333"
       steps="2"
       helper_size="0"
       apply_no_weight="true"
       apply_with_weight="true"
       only_selected="false" />
    <inkscape:path-effect
       effect="bspline"
       id="path-effect2747"
       is_visible="true"
       lpeversion="1"
       weight="33.333333"
       steps="2"
       helper_size="0"
       apply_no_weight="true"
       apply_with_weight="true"
       only_selected="false" />
    <inkscape:path-effect
       effect="bspline"
       id="path-effect2743"
       is_visible="true"
       lpeversion="1"
       weight="33.333333"
       steps="2"
       helper_size="0"
       apply_no_weight="true"
       apply_with_weight="true"
       only_selected="false" />
    <inkscape:path-effect
       effect="bspline"
       id="path-effect2731"
       is_visible="true"
       lpeversion="1"
       weight="33.333333"
       steps="2"
       helper_size="0"
       apply_no_weight="true"
       apply_with_weight="true"
       only_selected="false" />
    <inkscape:path-effect
       effect="bspline"
       id="path-effect2727"
       is_visible="true"
       lpeversion="1"
       weight="33.333333"
       steps="2"
       helper_size="0"
       apply_no_weight="true"
       apply_with_weight="true"
       only_selected="false" />
    <inkscape:path-effect
       effect="bspline"
       id="path-effect1532"
       is_visible="true"
       lpeversion="1"
       weight="33.333333"
       steps="2"
       helper_size="0"
       apply_no_weight="true"
       apply_with_weight="true"
       only_selected="false" />
    <inkscape:path-effect
       effect="bspline"
       id="path-effect1316"
       is_visible="true"
       lpeversion="1"
       weight="33.333333"
       steps="2"
       helper_size="0"
       apply_no_weight="true"
       apply_with_weight="true"
       only_selected="false" />
    <inkscape:path-effect
       effect="bspline"
       id="path-effect1312"
       is_visible="true"
       lpeversion="1"
       weight="33.333333"
       steps="2"
       helper_size="0"
       apply_no_weight="true"
       apply_with_weight="true"
       only_selected="false" />
    <inkscape:path-effect
       effect="bspline"
       id="path-effect1308"
       is_visible="true"
       lpeversion="1"
       weight="33.333333"
       steps="2"
       helper_size="0"
       apply_no_weight="true"
       apply_with_weight="true"
       only_selected="false" />
    <inkscape:path-effect
       effect="bspline"
       id="path-effect1300"
       is_visible="true"
       lpeversion="1"
       weight="33.333333"
       steps="2"
       helper_size="0"
       apply_no_weight="true"
       apply_with_weight="true"
       only_selected="false" />
    <inkscape:path-effect
       effect="bspline"
       id="path-effect1183"
       is_visible="true"
       lpeversion="1"
       weight="33.333333"
       steps="2"
       helper_size="0"
       apply_no_weight="true"
       apply_with_weight="true"
       only_selected="false" />
  </defs>
  <g
     inkscape:label="Capa 1"
     inkscape:groupmode="layer"
     id="layer1"
     style="opacity:0.0565029;mix-blend-mode:normal" />
  <g
     inkscape:groupmode="layer"
     id="layer2"
     inkscape:label="Capa2" />
  <g
     inkscape:groupmode="layer"
     id="layer3"
     inkscape:label="Capa3" />
  <g
     id="g2403"
     transform="translate(-182.74482,-103.17276)">
    <path
       style="fill:#000000;stroke:#000000;stroke-width:1px;stroke-linecap:butt;stroke-linejoin:miter;stroke-opacity:1"
       d="m 235.3938,213.13008 c 1.87474,-2.77185 3.74933,-5.54348 6.06808,-7.78433 2.31875,-2.24086 5.08096,-3.95027 8.08325,-5.29355 3.00229,-1.34329 6.24346,-2.32016 9.48534,-3.29724 0.83724,-4.72325 1.67434,-9.4457 3.55869,-15.16434 1.88435,-5.71864 4.81577,-12.43208 7.8329,-18.18759 3.01714,-5.75551 6.11977,-10.55257 9.6677,-14.71904 3.54793,-4.16648 7.54072,-7.70184 10.77607,-10.05188 3.23535,-2.35003 5.71228,-3.51427 8.1897,-4.67874 -3.84493,0.37078 -7.68898,0.74148 -11.62672,1.70185 -3.93775,0.96036 -7.9678,2.51037 -11.75347,4.53943 -3.78566,2.02907 -7.32637,4.53699 -10.81724,7.32024 -3.49088,2.78324 -6.9316,5.84157 -10.41929,9.64081 -3.48768,3.79925 -7.02195,8.33896 -10.24136,13.38356 -3.21941,5.04461 -6.12368,10.59357 -8.05655,15.51979 -1.93287,4.92623 -2.89426,9.22908 -3.08401,13.1535 -0.18975,3.92442 0.39179,7.46979 0.91006,9.72646 0.51826,2.25667 0.97227,3.22326 1.42685,4.19107 z"
       id="path1181"
       inkscape:path-effect="#path-effect1183"
       inkscape:original-d="m 235.3938,213.13008 c 0,0 3.75048,-5.5427 5.62422,-8.31554 2.76333,-1.70848 5.52555,-3.41788 8.28682,-5.12833 3.24294,-0.9761 9.72563,-2.93125 9.72563,-2.93125 0,0 1.67548,-9.4455 2.51172,-14.16975 2.93253,-6.7127 5.86394,-13.42614 8.79441,-20.1407 3.10376,-4.79624 6.20639,-9.5933 9.30809,-14.39144 3.99394,-3.5345 7.98672,-7.06987 11.97859,-10.6063 2.47846,-1.16349 7.43225,-3.4934 7.43225,-3.4934 0,0 -7.68887,0.74257 -11.5348,1.11235 -4.02921,1.55107 -8.05926,3.10108 -12.0904,4.65012 -3.53984,2.50902 -7.08055,5.01694 -10.62232,7.5239 -3.43985,3.05945 -6.88057,6.11778 -10.32236,9.17517 -3.53341,4.5409 -7.06768,9.08061 -10.60302,13.61941 -2.90339,5.55018 -5.80766,11.09914 -8.713,16.6472 -0.96043,4.30402 -1.92183,8.60687 -2.88424,12.90881 0.58257,3.54651 1.1641,7.09188 1.74466,10.63632 0.45559,0.96883 1.36375,2.90343 1.36375,2.90343 z" />
    <path
       style="fill:#000000;stroke:#000000;stroke-width:1px;stroke-linecap:butt;stroke-linejoin:miter;stroke-opacity:1"
       d="m 266.70873,198.21941 c 0,0 21.06926,-7.81085 21.06926,-7.81085 1.9051,-4.68163 3.80999,-9.36276 6.35517,-13.58313 2.54518,-4.22036 5.73019,-7.9789 9.73695,-11.66582 4.00676,-3.68691 8.83479,-7.30179 14.02318,-10.49822 5.1884,-3.19642 10.7362,-5.97394 16.28451,-8.75172 -5.67194,4.98519 -11.34381,9.97032 -15.58313,14.11883 -4.23932,4.1485 -7.04576,7.46003 -9.79623,11.44921 -2.75046,3.98918 -5.44467,8.65553 -6.93408,11.3486 -1.48941,2.69308 -1.77374,3.41205 -2.05828,4.13156 4.94311,-1.17541 9.88695,-2.35099 14.55735,-3.23221 4.6704,-0.88122 9.06695,-1.46818 13.46443,-2.05527 4.95325,-4.53877 9.90654,-9.07757 16.66116,-14.87847 6.75461,-5.8009 15.31019,-12.8636 22.14732,-17.6266 6.83713,-4.763 11.95511,-7.22593 18.89022,-9.44796 6.93511,-2.22203 15.68656,-4.20305 24.55421,-5.29233 8.86765,-1.08928 17.85071,-1.2869 26.15981,-0.35782 8.3091,0.92908 15.94357,2.98444 25.01066,6.38996 9.06708,3.40551 19.56618,8.16072 27.06214,11.93222 7.49595,3.7715 11.98725,6.55817 16.4798,9.34563 6.20936,-3.92221 12.41899,-7.84458 16.78428,-13.06997 4.36529,-5.22539 6.88687,-11.75439 8.42471,-15.8344 1.53784,-4.08001 2.09206,-5.71147 2.64608,-7.34237 -5.3667,1.49609 -10.73272,2.99199 -16.72413,3.85889 -5.99142,0.8669 -12.60759,1.10445 -20.24158,0.53475 -7.63399,-0.56969 -16.28551,-1.94679 -26.0084,-3.90223 -9.72289,-1.95544 -20.51659,-4.48918 -27.86368,-6.3883 -7.34708,-1.89911 -11.2472,-3.1636 -15.33281,-4.39952 -4.08561,-1.23591 -8.35647,-2.44314 -13.1449,-3.47692 -4.78843,-1.03378 -10.09407,-1.8939 -15.7094,-2.33783 -5.61533,-0.44393 -11.53986,-0.47146 -17.23383,-0.20787 -5.69398,0.2636 -11.15695,0.81839 -17.02495,1.996 -5.868,1.17761 -12.14043,2.97805 -18.5924,5.19672 -6.45197,2.21867 -13.08294,4.85545 -19.46999,8.23864 -6.38704,3.38319 -12.52948,7.51251 -17.38144,11.032 -4.85197,3.51949 -8.41308,6.4289 -12.34266,10.22868 -3.92958,3.79978 -8.22723,8.48954 -12.00627,13.53308 -3.77905,5.04355 -7.03914,10.44032 -9.5791,15.85765 -2.53995,5.41732 -4.35961,10.85455 -5.45358,14.68604 -1.09396,3.83148 -1.46211,6.056 -1.8304,8.28137 0,0 0,-2e-5 0,-2e-5 z"
       id="path1298"
       inkscape:path-effect="#path-effect1300"
       inkscape:original-d="m 266.70873,198.21941 c 0,0 21.06926,-7.81085 21.06926,-7.81085 0,0 3.8112,-9.36227 5.7153,-14.0449 3.18612,-3.75769 6.37113,-7.51622 9.5552,-11.27583 4.82922,-3.61401 9.65725,-7.22888 14.48437,-10.84483 5.54943,-2.77683 16.64494,-8.33333 16.64494,-8.33333 0,0 -11.34287,9.97139 -17.01582,14.95558 -2.80556,3.31266 -5.612,6.62419 -8.4195,9.93479 -2.69332,4.66753 -5.38752,9.33388 -8.08278,13.99931 -0.28355,0.72052 -0.85362,2.15852 -0.85362,2.15852 0,0 9.88723,-2.34981 14.82934,-3.52622 4.39856,-0.5861 13.19244,-1.76126 13.19244,-1.76126 0,0 9.90749,-9.07654 14.85975,-13.6163 8.55692,-7.06198 17.11249,-14.12469 25.66725,-21.18853 5.11919,-2.46203 10.23717,-4.92496 15.35426,-7.38895 8.75281,-1.98011 17.50427,-3.96113 26.25492,-5.94321 8.9844,-0.19663 17.96746,-0.39425 26.94968,-0.59288 7.63578,2.05645 15.27025,4.11182 22.90387,6.16622 10.50052,4.7564 20.99962,9.51161 31.49793,14.26591 4.49364,2.78852 13.47766,8.36237 13.47766,8.36237 0,0 12.41972,-7.84342 18.62808,-11.76662 2.5227,-6.52827 5.04429,-13.05727 7.56492,-19.58742 0.55504,-1.62993 1.66207,-4.8927 1.66207,-4.8927 0,0 -10.73239,2.99318 -16.10009,4.48827 -6.61542,0.23855 -13.23159,0.4761 -19.84889,0.71265 -8.65085,-1.37615 -17.30237,-2.75324 -25.95505,-4.13137 -10.79314,-2.53285 -21.58684,-5.0666 -32.38177,-7.6014 -3.89927,-1.26354 -7.79939,-2.52803 -11.70058,-3.79354 -4.27002,-1.20627 -8.54088,-2.4135 -12.81282,-3.62174 -5.30486,-0.85916 -10.6105,-1.71929 -15.91727,-2.58043 -5.92376,-0.0265 -11.84829,-0.0541 -17.77395,-0.0826 -5.46218,0.55582 -10.92515,1.11061 -16.38923,1.66442 -6.27169,1.8015 -12.54412,3.60195 -18.81768,5.40142 -6.63024,2.63789 -13.26121,5.27467 -19.89332,7.91051 -6.14169,4.13048 -12.28413,8.25979 -18.42769,12.3882 -3.56025,2.91052 -7.12136,5.81993 -10.68354,8.7284 -4.29683,4.69095 -8.59448,9.38071 -12.89322,14.06958 -3.25921,5.39798 -6.51931,10.79475 -9.78046,16.19064 -1.81873,5.43845 -3.63839,10.87568 -5.45909,16.31203 -0.3673,2.22641 -1.10487,6.67611 -1.10487,6.67611 z" />
    <path
       style="fill:#000000;stroke:#000000;stroke-width:1px;stroke-linecap:butt;stroke-linejoin:miter;stroke-opacity:1"
       d="m 341.39089,181.53713 c 4.54514,-0.47766 9.09118,-0.95542 13.57552,-0.89883 4.48435,0.0566 8.9064,0.64703 13.32965,1.23762 0,0 -9.01708,10.79717 -9.01708,10.79717 6.25815,-3.23769 12.51668,-6.47557 19.40452,-9.51638 6.88783,-3.04081 14.40487,-5.88461 19.60115,-7.32188 5.19628,-1.43727 8.07107,-1.46813 12.47593,-1.51008 4.40486,-0.0419 10.33951,-0.095 15.79203,0.30996 5.45251,0.40495 10.42126,1.26743 15.39126,2.13013 0.2647,2.53355 0.52952,5.0682 0.36117,7.46898 -0.16835,2.40079 -0.76925,4.66843 -1.37035,6.93681 5.76556,0.85259 11.53224,1.70535 17.75531,3.35937 6.22307,1.65401 12.90328,4.10905 18.84434,6.53019 5.94106,2.42114 11.14261,4.80812 16.35004,7.95835 5.20742,3.15023 10.42048,7.06323 13.36572,9.37634 2.94523,2.31311 3.62167,3.02499 4.29909,3.73792 2.68889,0.24393 5.37885,0.48796 8.10909,0.65588 2.73024,0.16793 5.50177,0.2599 9.37466,-0.25313 3.87289,-0.51304 8.84718,-1.63085 13.12462,-2.73254 4.27744,-1.10169 7.85787,-2.18717 10.85313,-3.22958 2.99526,-1.04241 5.40532,-2.04168 7.46335,-3.0338 2.05803,-0.99211 3.76378,-1.97687 5.46988,-2.96182 -2.89945,2.40258 -5.7988,4.80508 -9.52069,7.22149 -3.7219,2.41641 -8.2663,4.84664 -11.72309,6.47701 -3.45678,1.63038 -5.82597,2.46081 -8.46295,3.19156 -2.63697,0.73076 -5.54173,1.36176 -8.1246,1.76817 -2.58287,0.40642 -4.84477,0.58821 -7.10581,0.76994 0,0 21.50629,21.43197 21.50629,21.43197 3.9357,-2.00437 7.8718,-4.00895 13.07359,-7.15794 5.20179,-3.14899 11.66959,-7.44248 17.12263,-11.38297 5.45303,-3.9405 9.89112,-7.52784 14.02474,-12.4904 4.13362,-4.96256 7.9628,-11.30038 11.20202,-17.53382 3.23921,-6.23343 5.88831,-12.36231 7.59437,-16.81543 1.70606,-4.45311 2.46916,-7.23111 3.2321,-10.00849 -1.91092,1.08169 -3.82151,2.1632 -7.95639,3.19946 -4.13489,1.03625 -10.49397,2.02698 -16.72068,2.66534 -6.22671,0.63836 -12.32078,0.92424 -18.68531,0.84456 -6.36453,-0.0797 -12.99922,-0.52506 -19.63419,-1.33134 -6.63497,-0.80628 -13.26989,-1.97355 -20.26123,-3.64647 -6.99135,-1.67292 -14.33873,-3.85153 -20.6396,-6.15575 -6.30086,-2.30422 -11.55488,-4.73412 -16.17479,-7.06452 -4.61991,-2.33041 -8.60546,-4.56129 -12.87328,-6.61511 -4.26782,-2.05382 -8.81768,-3.93029 -13.67251,-5.78302 -4.85484,-1.85274 -10.01437,-3.68157 -15.55533,-5.13809 -5.54095,-1.45653 -11.46295,-2.54045 -17.72023,-3.17946 -6.25728,-0.639 -12.84936,-0.83289 -19.28659,-0.13289 -6.43723,0.7 -12.71891,2.29403 -18.5454,4.35015 -5.82649,2.05611 -11.19718,4.57421 -16.96663,7.95909 -5.76945,3.38488 -11.93707,7.63626 -17.45016,12.0335 -5.51308,4.39723 -10.37117,8.93996 -15.22931,13.48274 0,0 0,4e-5 0,4e-5 z"
       id="path1306"
       inkscape:path-effect="#path-effect1308"
       inkscape:original-d="m 341.39089,181.53713 c 0,0 9.09129,-0.95433 13.63543,-1.43299 4.42433,0.59161 13.26974,1.77178 13.26974,1.77178 0,0 -9.01708,10.79717 -9.01708,10.79717 0,0 12.5173,-6.47437 18.77445,-9.71306 7.51836,-2.84292 15.0354,-5.68672 22.5516,-8.53159 2.87591,-0.0299 5.7507,-0.0607 8.62454,-0.0926 5.93588,-0.052 11.87053,-0.10507 17.80431,-0.1591 4.9711,0.86372 14.90999,2.5881 14.90999,2.5881 0,0 0.5304,5.06811 0.79411,7.60066 -0.60011,2.26942 -1.80329,6.80513 -1.80329,6.80513 0,0 11.53212,1.70619 17.29667,2.55778 6.6815,2.45616 13.36172,4.9112 20.04107,7.3653 5.20276,2.38807 10.40432,4.77504 15.60497,7.16106 5.21428,3.91416 10.42734,7.82716 15.63952,11.73925 0.67844,0.71394 2.03227,2.13878 2.03227,2.13878 0,0 5.37877,0.48886 8.06666,0.73179 2.77264,0.093 5.54417,0.18496 8.31476,0.27594 4.97548,-1.11685 9.94977,-2.23466 14.92316,-3.35349 3.58159,-1.08452 7.16202,-2.17001 10.74152,-3.25651 2.41116,-0.99831 4.82122,-1.99758 7.23033,-2.99786 1.70713,-0.98397 5.1183,-2.95486 5.1183,-2.95486 0,0 -5.7979,4.80616 -8.69836,7.20775 -4.54359,2.43134 -9.08799,4.86158 -13.6335,7.29087 -2.36828,0.83146 -4.73747,1.66189 -7.1077,2.49133 -2.90389,0.63203 -5.80865,1.26303 -8.71447,1.89304 -2.26008,0.18273 -6.78311,0.54518 -6.78311,0.54518 0,0 21.50629,21.43197 21.50629,21.43197 0,0 7.87241,-4.00775 11.80711,-6.01312 6.46904,-4.29265 12.93684,-8.58614 19.40375,-12.88071 4.43927,-3.58649 8.87736,-7.17383 13.31456,-10.76225 3.83034,-6.33708 7.65952,-12.6749 11.48778,-19.01385 2.6502,-6.12811 5.2993,-12.25699 7.94744,-18.38698 0.76395,-2.77644 2.28881,-8.33214 2.28881,-8.33214 0,0 -3.82084,2.16439 -5.73276,3.24508 -6.35834,0.99176 -12.71742,1.98249 -19.07765,2.97223 -6.09332,0.28689 -12.18739,0.57278 -18.2826,0.85767 -6.63396,-0.44438 -13.26865,-0.88975 -19.90447,-1.33612 -6.6342,-1.16632 -13.26912,-2.33359 -19.90518,-3.50189 -7.34668,-2.17769 -14.69406,-4.35631 -22.0426,-6.53596 -5.25321,-2.42899 -10.50722,-4.85889 -15.76232,-7.28983 -3.98471,-2.22997 -7.97026,-4.46085 -11.95689,-6.69278 -4.54903,-1.87554 -9.09888,-3.75202 -13.64982,-5.62952 -5.15873,-1.8279 -10.31826,-3.65673 -15.47888,-5.48659 -5.92124,-1.08296 -11.84323,-2.16689 -17.76634,-3.25183 -6.59134,-0.19289 -13.18342,-0.38678 -19.77662,-0.58167 -6.28093,1.5951 -12.56261,3.18913 -18.8454,4.78219 -5.36992,2.5192 -10.74062,5.03729 -16.11243,7.55444 -6.16686,4.25256 -12.33448,8.50394 -18.50324,12.75442 -4.85724,4.54387 -14.57443,13.62835 -14.57443,13.62835 z" />
    <path
       style="fill:#000000;stroke:#000000;stroke-width:1px;stroke-linecap:butt;stroke-linejoin:miter;stroke-opacity:1"
       d="m 212.5197,294.22306 c -2.52312,-3.47346 -5.04542,-6.94579 -7.39974,-9.7474 -2.35432,-2.8016 -4.53995,-4.93112 -6.15974,-6.19473 -1.6198,-1.2636 -2.67388,-1.66068 -3.42944,-1.81638 -0.75557,-0.1557 -1.21215,-0.0694 -1.62275,0.057 -0.41061,0.12639 -0.77488,0.2929 -1.17237,0.58094 -0.39748,0.28804 -0.82774,0.6974 -1.18907,1.14846 -0.36133,0.45107 -0.65352,0.94348 -1.05735,1.82832 -0.40383,0.88484 -0.91924,2.16185 -1.28407,3.54865 -0.36483,1.38681 -0.57915,2.88302 -0.62389,4.05972 -0.0447,1.17669 0.0796,2.03241 0.20418,2.88927 0,0 6.34862,0.1556 6.34862,0.1556 -1.04763,0.53588 -2.09487,1.07156 -3.11963,1.46037 -1.02476,0.38882 -2.02767,0.6307 -3.02988,0.87241 0.18832,1.04663 0.37684,2.09439 0.59442,2.95211 0.21758,0.85771 0.46372,1.5252 0.71032,2.19391 1.24053,-0.0835 2.48198,-0.16702 3.49945,-0.27146 1.01748,-0.10444 1.81116,-0.22965 2.60567,-0.35499 -0.88839,0.5761 -1.77653,1.15204 -2.69559,1.6429 -0.91905,0.49085 -1.86946,0.8967 -2.8194,1.30235 0.45069,1.15613 0.90186,2.31348 1.33449,3.26597 0.43264,0.9525 0.84636,1.70016 1.26074,2.44902 0,0 5.55972,-1.45284 5.55972,-1.45284 0,0 -4.33209,3.21743 -4.33209,3.21743 0.39088,0.5353 0.78257,1.07172 1.38975,1.81584 0.60718,0.74413 1.43052,1.6971 2.55261,2.63332 1.12209,0.93621 2.54261,1.85592 3.82875,2.41434 1.28614,0.55842 2.43783,0.75606 3.34694,0.72649 0.90912,-0.0296 1.5762,-0.28596 2.58691,-0.99668 1.01071,-0.71073 2.36544,-1.87588 3.5753,-3.03655 1.20986,-1.16068 2.27493,-2.31696 3.33999,-3.47322 2.47065,0.98265 4.94251,1.96578 8.15998,2.97268 3.21748,1.00689 7.18167,2.03816 10.81965,2.82041 3.63798,0.78225 6.94959,1.31555 10.12629,1.68341 3.1767,0.36786 6.21839,0.57037 8.70451,0.65394 2.48611,0.0836 4.4166,0.0483 6.29263,-0.16466 1.87602,-0.21295 3.6977,-0.60339 5.46493,-1.15799 1.76723,-0.55459 3.48019,-1.27324 4.84652,-2.04543 1.36633,-0.77218 2.38622,-1.59786 3.40626,-2.42366 -1.81329,-0.66867 -3.62536,-1.33689 -5.70695,-2.02439 -2.08158,-0.6875 -4.43135,-1.39372 -6.83247,-2.00212 -2.40112,-0.60839 -4.85342,-1.11881 -7.29675,-1.56722 -2.44333,-0.44842 -4.87866,-0.83493 -7.31291,-1.22127 2.75432,-0.18849 5.50956,-0.37705 9.10168,-0.24414 3.59212,0.13292 8.02171,0.58705 11.71993,1.20421 3.69822,0.61717 6.66361,1.39683 9.63024,2.17682 0.93289,-0.96969 1.86576,-1.93936 2.87399,-3.52662 1.00824,-1.58727 2.09197,-3.79242 2.8067,-5.88198 0.71474,-2.08955 1.06053,-4.06458 1.40618,-6.03885 -2.43828,-0.034 -4.87554,-0.0679 -7.59239,-0.0123 -2.71686,0.0557 -5.7121,0.20096 -8.77358,0.38073 -3.06147,0.17977 -6.18897,0.394 -9.79722,0.97951 -3.60825,0.58551 -7.69754,1.54254 -11.78618,2.49941 2.10338,-1.01909 4.20718,-2.03838 6.79285,-3.03314 2.58568,-0.99475 5.65333,-1.96513 9.02224,-2.81748 3.36891,-0.85234 7.03873,-1.58664 10.81404,-2.04189 3.77531,-0.45524 7.65476,-0.63148 11.53523,-0.80777 -0.53775,-1.73683 -1.07513,-3.47246 -1.75052,-4.93376 -0.67539,-1.46129 -1.4896,-2.64812 -2.30304,-3.83382 -2.46998,0.0609 -4.93899,0.12183 -7.51849,0.28246 -2.57951,0.16063 -5.26836,0.42102 -8.27238,0.86897 -3.00402,0.44794 -6.32292,1.08348 -9.52503,1.85519 -3.2021,0.7717 -6.28707,1.67957 -8.36456,2.37526 -2.0775,0.6957 -3.14766,1.17941 -4.2174,1.66293 1.38387,-1.0357 2.76791,-2.07152 4.68034,-3.22933 1.91243,-1.1578 4.35311,-2.43758 7.31918,-3.62216 2.96606,-1.18458 6.45708,-2.27389 9.84223,-3.06433 3.38515,-0.79044 6.66322,-1.28192 9.94218,-1.77353 -1.56987,-0.83441 -3.13854,-1.66818 -5.10994,-2.43234 -1.9714,-0.76416 -4.34423,-1.45775 -7.10108,-1.86471 -2.75684,-0.40697 -5.89739,-0.52697 -8.87114,-0.41519 -2.97374,0.11178 -5.78035,0.45547 -8.56964,1.06901 -2.78929,0.61354 -5.56086,1.49698 -8.15901,2.81198 -2.59815,1.315 -5.02228,3.06142 -7.29292,4.78784 -2.27064,1.72642 -4.38759,3.43269 -6.37252,5.33037 -1.98493,1.89768 -3.83757,3.98648 -5.26926,5.68587 -1.43169,1.69938 -2.44231,3.00915 -3.09142,3.97923 -0.6491,0.97007 -0.93636,1.59963 -1.22383,2.22966 z"
       id="path2725"
       inkscape:path-effect="#path-effect2727"
       inkscape:original-d="m 212.5197,294.22306 c 0,0 -5.04524,-6.94592 -7.56936,-10.42038 -2.18471,-2.12861 -4.37034,-4.25813 -6.55701,-6.3887 -1.05312,-0.3961 -2.10719,-0.79319 -3.1623,-1.19128 -0.4556,0.0873 -0.91218,0.1736 -1.36977,0.2589 -0.36329,0.16752 -0.72756,0.33403 -1.09284,0.49955 -0.42927,0.41038 -0.85953,0.81974 -1.29079,1.22812 -0.29119,0.49343 -0.58338,0.98584 -0.87657,1.47725 -0.51444,1.27806 -1.02986,2.55506 -1.54628,3.83109 -0.21333,1.49726 -0.42764,2.99347 -0.64296,4.4887 0.12555,0.85788 0.37364,2.57058 0.37364,2.57058 0,0 6.34862,0.1556 6.34862,0.1556 0,0 -2.09426,1.07276 -3.14288,1.60764 -1.00123,0.24272 -3.00663,0.72514 -3.00663,0.72514 0,0 0.37764,2.09425 0.56495,3.13988 0.24761,0.66973 0.73979,2.00614 0.73979,2.00614 0,0 2.48205,-0.16595 3.72158,-0.25043 0.79553,-0.12434 2.38354,-0.37602 2.38354,-0.37602 0,0 -1.77578,1.1532 -2.66516,1.7283 -0.94897,0.40665 -2.84983,1.21695 -2.84983,1.21695 0,0 0.90239,2.31327 1.35208,3.4684 0.41539,0.74988 1.24315,2.24659 1.24315,2.24659 0,0 5.55972,-1.45284 5.55972,-1.45284 0,0 -4.33209,3.21743 -4.33209,3.21743 0,0 0.78275,1.07159 1.17263,1.60589 0.82438,0.95401 1.64772,1.90698 2.47007,2.85897 1.42159,0.92076 2.84211,1.84047 4.26167,2.75921 1.15274,0.19865 2.30443,0.3963 3.45515,0.59295 0.66811,-0.2554 1.33519,-0.51178 2.00128,-0.76917 1.35579,-1.1642 2.71052,-2.32935 4.06428,-3.49552 1.06608,-1.15529 3.19517,-3.46879 3.19517,-3.46879 0,0 4.9423,1.9663 7.41194,2.94795 3.96534,1.03231 7.92953,2.06359 11.89279,3.09388 3.31275,0.53433 6.62436,1.06763 9.93503,1.59994 3.0428,0.20352 6.08449,0.40603 9.12523,0.60754 1.93157,-0.0343 3.86206,-0.0696 5.79159,-0.10585 1.82275,-0.38947 3.64443,-0.77991 5.46514,-1.17137 1.71401,-0.71768 3.42696,-1.43634 5.13894,-2.156 1.02106,-0.82482 3.06011,-2.47739 3.06011,-2.47739 0,0 -3.62557,-1.33633 -5.43986,-2.006 -2.34886,-0.70525 -4.69863,-1.41147 -7.04945,-2.11871 -2.45139,-0.50943 -4.90369,-1.01984 -7.35703,-1.53127 -2.43329,-0.38535 -7.30274,-1.15902 -7.30274,-1.15902 0,0 5.50963,-0.37599 8.26295,-0.56548 4.43076,0.45514 8.86035,0.90927 13.28902,1.36241 2.96768,0.781 8.89988,2.33996 8.89988,2.33996 0,0 1.86678,-1.93837 2.79866,-2.90906 1.08477,-2.20424 2.1685,-4.40939 3.25125,-6.61559 0.34666,-1.9733 1.03696,-5.9228 1.03696,-5.9228 0,0 -4.87555,-0.0669 -7.31484,-0.10188 -2.99436,0.14632 -5.9896,0.29163 -8.9859,0.43594 -3.12663,0.21524 -6.25413,0.42947 -9.3827,0.64271 -4.08773,0.95789 -12.26593,2.87062 -12.26593,2.87062 0,0 4.20776,-2.03718 6.31014,-3.05727 3.06877,-0.96942 6.13642,-1.93981 9.20313,-2.91121 3.67096,-0.73333 7.34078,-1.46763 11.00967,-2.20294 3.88155,-0.17529 11.64142,-0.52886 11.64142,-0.52886 0,0 -1.0745,-3.47266 -1.61325,-5.21048 -0.81245,-1.18472 -2.44031,-3.5571 -2.44031,-3.5571 0,0 -4.93896,0.12285 -7.40994,0.18278 -2.68795,0.26141 -5.3768,0.52179 -8.0667,0.78118 -3.31803,0.63657 -6.63693,1.2721 -9.95691,1.90665 -3.0841,0.9089 -6.16907,1.81677 -9.2551,2.72365 -1.06876,0.48453 -3.20921,1.45055 -3.20921,1.45055 0,0 2.76875,-2.0704 4.15162,-3.1071 2.44178,-1.27883 4.88246,-2.55861 7.32219,-3.83942 3.49214,-1.08836 6.98316,-2.17767 10.47324,-3.268 3.28002,-0.49062 9.83688,-1.47483 9.83688,-1.47483 0,0 -3.13874,-1.66781 -4.7096,-2.50322 -2.37193,-0.69262 -4.74476,-1.38622 -7.11864,-2.08083 -3.13966,-0.11901 -6.28021,-0.23901 -9.42182,-0.36001 -2.80571,0.3447 -5.61231,0.6884 -8.41997,1.0311 -2.77068,0.88447 -5.54225,1.76791 -8.31489,2.65036 -2.42322,1.74749 -4.84735,3.49391 -7.27253,5.23936 -2.11603,1.70735 -4.23298,3.41362 -6.35097,5.11892 -1.85171,2.08989 -3.70434,4.1787 -5.55801,6.26655 -1.00967,1.31083 -2.02029,2.6206 -3.03192,3.92941 -0.28648,0.63104 -0.86241,1.89008 -0.86241,1.89008 z" />
    <path
       style="fill:#000000;stroke:#000000;stroke-width:1px;stroke-linecap:butt;stroke-linejoin:miter;stroke-opacity:1"
       d="m 244.29731,325.85031 c 0,0 17.97255,0.43792 17.97255,0.43792 -0.85303,1.4335 -1.70624,2.86729 -2.41867,5.65131 -0.71242,2.78402 -1.28428,6.91784 -1.60516,11.52771 -0.32088,4.60987 -0.39086,9.69437 -0.46085,14.77995 -1.40937,-2.24959 -2.818,-4.49801 -4.31088,-6.94771 -1.49287,-2.4497 -3.06916,-5.0994 -4.37952,-8.23037 -1.31037,-3.13096 -2.35437,-6.74301 -3.10957,-9.69285 -0.75519,-2.94984 -1.22166,-5.23846 -1.6879,-7.52596 z"
       id="path2729"
       inkscape:path-effect="#path-effect2731"
       inkscape:original-d="m 244.29731,325.85031 c 0,0 17.97255,0.43792 17.97255,0.43792 0,0 -1.70506,2.86799 -2.5591,4.30049 -0.57088,4.13499 -1.14273,8.26881 -1.7156,12.40173 -0.069,5.08668 -0.20998,15.25675 -0.20998,15.25675 0,0 -2.81774,-4.49818 -4.2281,-6.74877 -1.57535,-2.64882 -3.15164,-5.29852 -4.72897,-7.94929 -1.04304,-3.61117 -2.08704,-7.22322 -3.13207,-10.83632 -0.46525,-2.28655 -1.39873,-6.86251 -1.39873,-6.86251 z" />
    <path
       style="fill:#000000;stroke:#000000;stroke-width:1px;stroke-linecap:butt;stroke-linejoin:miter;stroke-opacity:1"
       d="m 265.15223,368.05837 c 0,0 3.61227,-5.84897 3.61227,-5.84897 0,0 12.20734,20.5863 12.20734,20.5863 0.96638,-0.52898 1.9331,-1.05816 2.83272,-1.73175 0.89962,-0.67359 1.7328,-1.49193 2.53905,-2.37329 0.80625,-0.88136 1.58563,-1.8258 2.32786,-3.31087 0.74224,-1.48506 1.4474,-3.51112 1.94987,-5.14371 0.50246,-1.6326 0.80217,-2.87179 1.01027,-4.31396 0.20809,-1.44217 0.32446,-3.08743 0.49133,-4.82994 0.16688,-1.74251 0.3843,-3.58212 0.94607,-5.61353 0.56178,-2.0314 1.46797,-4.25411 2.4561,-6.33852 0.98814,-2.08441 2.05813,-4.03023 3.30955,-5.74414 1.25141,-1.7139 2.684,-3.19547 4.11661,-4.67706 -1.00846,-0.84676 -2.01584,-1.69261 -2.99441,-2.37376 -0.97857,-0.68114 -1.92733,-1.19638 -2.80658,-1.5299 -0.87925,-0.33352 -1.68892,-0.48488 -2.56138,-0.54898 -0.87247,-0.0641 -1.80748,-0.0407 -2.65261,0.0263 -0.84514,0.067 -1.60019,0.17772 -2.43163,0.51994 -0.83145,0.34221 -1.73867,0.91594 -2.64361,1.60564 -0.90494,0.6897 -1.80734,1.49522 -2.49255,2.22295 -0.6852,0.72773 -1.15299,1.3774 -1.735,2.30742 -0.58201,0.93002 -1.27815,2.1402 -1.78281,3.16433 -0.50466,1.02413 -0.81779,1.86193 -1.18536,2.89681 -0.36756,1.03489 -0.78955,2.26675 -1.14827,3.49305 -0.35873,1.22629 -0.6542,2.44682 -0.94269,3.74754 -0.28849,1.30072 -0.56999,2.68152 -0.80127,4.00414 -0.23127,1.32262 -0.41223,2.58608 -0.59331,3.85039 -0.14472,-2.37443 -0.28938,-4.7478 -0.28439,-6.8356 0.005,-2.08779 0.15982,-3.88873 0.32996,-5.53553 0.17013,-1.6468 0.35559,-3.13931 0.6827,-4.56155 0.32712,-1.42225 0.79597,-2.77386 1.00785,-3.50071 0.21189,-0.72685 0.16604,-0.82956 -0.008,-0.9753 -0.17399,-0.14573 -0.47675,-0.33402 -0.85613,-0.43565 -0.37937,-0.10162 -0.83519,-0.11589 -1.30135,-0.0972 -0.46617,0.0187 -0.94249,0.0706 -1.52129,0.24305 -0.57881,0.17249 -1.25966,0.46573 -1.7971,0.86488 -0.53744,0.39916 -0.93085,0.90386 -1.45101,1.60857 -0.52016,0.70471 -1.16701,1.60934 -1.79424,2.61698 -0.62723,1.00765 -1.23476,2.11809 -1.75117,3.12455 -0.5164,1.00645 -0.94164,1.90878 -1.32899,2.86691 -0.38735,0.95814 -0.73678,1.97187 -1.05664,2.95383 -0.31986,0.98197 -0.61013,1.93207 -0.79229,2.8006 -0.18216,0.86853 -0.2563,1.65518 -0.29057,2.49696 -0.0343,0.84179 -0.0287,1.73855 0.0222,2.57715 0.0509,0.8386 0.14703,1.61891 0.3485,2.56636 0.20148,0.94746 0.50778,2.06075 0.81441,3.17525 0,0 -2e-5,-1e-5 -2e-5,-1e-5 z"
       id="path2741"
       inkscape:path-effect="#path-effect2743"
       inkscape:original-d="m 265.15223,368.05837 c 0,0 3.61227,-5.84897 3.61227,-5.84897 0,0 12.20734,20.5863 12.20734,20.5863 0,0 1.93375,-1.05697 2.89913,-1.58695 0.8342,-0.81738 1.66737,-1.63573 2.49956,-2.45508 0.78041,-0.94348 1.55979,-1.88792 2.33819,-2.83338 0.70619,-2.02514 1.41135,-4.0512 2.11553,-6.07829 0.30072,-1.23824 0.60043,-2.47743 0.89915,-3.71765 0.11737,-1.64432 0.23374,-3.28958 0.3491,-4.93587 0.21843,-1.83868 0.43584,-3.67829 0.65226,-5.51893 0.90723,-2.22181 1.81343,-4.44452 2.71864,-6.66828 1.07104,-1.9449 2.14103,-3.89072 3.21005,-5.83758 1.43364,-1.48061 4.29782,-4.44476 4.29782,-4.44476 0,0 -2.01592,-1.69252 -3.02539,-2.54029 -0.94778,-0.51425 -1.89654,-1.02949 -2.8463,-1.54574 -0.8087,-0.15036 -1.61837,-0.30173 -2.42906,-0.45409 -0.93406,0.0244 -1.86907,0.0478 -2.80511,0.0702 -0.75409,0.11172 -1.50914,0.22243 -2.26521,0.33214 -0.90625,0.57476 -1.81347,1.14849 -2.72171,1.72123 -0.90144,0.80654 -1.80384,1.61206 -2.70726,2.41659 -0.46681,0.65069 -0.93459,1.30037 -1.40338,1.94905 -0.69518,1.21122 -1.39132,2.4214 -2.08848,3.6306 -0.31214,0.83883 -0.62527,1.67663 -0.9394,2.51344 -0.421,1.23292 -0.84299,2.46478 -1.26598,3.69568 -0.29448,1.22157 -0.58996,2.44209 -0.88644,3.66164 -0.28051,1.38185 -0.56201,2.76265 -0.84452,4.14248 -0.18008,1.26533 -0.54324,3.79294 -0.54324,3.79294 0,0 -0.28845,-4.74786 -0.43417,-7.12329 0.15584,-1.80001 0.31068,-3.60095 0.46452,-5.40293 0.18646,-1.49157 0.37191,-2.98408 0.55637,-4.47762 0.46987,-1.35067 0.93871,-2.70229 1.40658,-4.05493 -0.0448,-0.10169 -0.0907,-0.20438 -0.13752,-0.30808 -0.30179,-0.18729 -0.60455,-0.37558 -0.90831,-0.56488 -0.45484,-0.0133 -0.91066,-0.0275 -1.36749,-0.0428 -0.47535,0.0528 -0.95167,0.10467 -1.429,0.15551 -0.67988,0.29425 -1.36073,0.58749 -2.04259,0.87974 -0.39243,0.50572 -0.78585,1.01042 -1.18027,1.51413 -0.64587,0.90566 -1.29271,1.81029 -1.94057,2.71394 -0.60655,1.11148 -1.21408,2.22192 -1.82262,3.33138 -0.42426,0.90337 -0.8495,1.8057 -1.27575,2.70705 -0.34845,1.01476 -0.69788,2.02849 -1.04832,3.04123 -0.28928,0.95115 -0.57955,1.90125 -0.87083,2.85038 -0.0731,0.78767 -0.1473,1.57431 -0.22245,2.35997 0.007,0.8978 0.0121,1.79456 0.0166,2.69033 0.0971,0.78134 0.19326,1.56164 0.28839,2.34095 0.30764,1.11552 0.91989,3.3435 0.91989,3.3435 z" />
    <path
       style="fill:#000000;stroke:#000000;stroke-width:1px;stroke-linecap:butt;stroke-linejoin:miter;stroke-opacity:1"
       d="m 206.70173,325.68754 c 2.84111,0.008 5.68323,0.0163 7.77966,-0.29542 2.09643,-0.31176 3.44825,-0.94301 4.80053,-1.57447 0,0 1.29685,21.65952 1.29685,21.65952 0,0 -13.87704,-19.78961 -13.87704,-19.78961 0,0 0,-2e-5 0,-2e-5 z"
       id="path2745"
       inkscape:path-effect="#path-effect2747"
       inkscape:original-d="m 206.70173,325.68754 c 0,0 5.68323,0.0173 8.52334,0.0245 1.35332,-0.63047 4.05685,-1.89439 4.05685,-1.89439 0,0 1.29685,21.65952 1.29685,21.65952 0,0 -13.87704,-19.78961 -13.87704,-19.78961 z" />
    <path
       style="fill:#000000;stroke:#000000;stroke-width:1px;stroke-linecap:butt;stroke-linejoin:miter;stroke-opacity:1"
       d="m 267.01691,402.64798 c 2.06352,0.0111 4.12805,0.0222 6.09603,0.0505 1.96798,0.0283 3.84034,0.0737 5.26362,0.0695 1.42328,-0.004 2.39747,-0.0581 3.22623,-0.24534 0.82876,-0.18721 1.51212,-0.5074 2.19592,-0.8278 -1.68143,-1.43533 -3.36179,-2.86975 -4.92768,-4.55616 -1.5659,-1.6864 -3.01595,-3.62401 -4.15754,-5.5164 -1.14159,-1.89239 -1.97436,-3.73955 -2.91538,-6.05577 -0.94102,-2.31622 -1.9906,-5.10257 -3.03975,-7.88776 -0.34756,0.81214 -0.69534,1.62477 -1.01551,3.63983 -0.32018,2.01505 -0.61309,5.23245 -0.79879,7.91821 -0.18571,2.68575 -0.26425,4.83963 -0.2342,6.98644 0.0301,2.1468 0.16851,4.28525 0.30705,6.42479 z"
       id="path2792"
       inkscape:path-effect="#path-effect2794"
       inkscape:original-d="m 267.01691,402.64798 c 0,0 4.12804,0.0232 6.19056,0.0333 1.87343,0.0464 3.74579,0.0919 5.6172,0.13633 0.97523,-0.0529 1.94942,-0.10674 2.92263,-0.16161 0.68481,-0.31941 2.05141,-0.9612 2.05141,-0.9612 0,0 -3.36186,-2.86967 -5.0443,-4.306 -1.44912,-1.93668 -2.89917,-3.87429 -4.35025,-5.81293 -0.8318,-1.84623 -1.66457,-3.69339 -2.49836,-5.54158 -1.04817,-2.78424 -3.14744,-8.35558 -3.14744,-8.35558 0,0 -0.69413,1.62529 -1.04269,2.43643 -0.29192,3.21855 -0.58483,6.43595 -0.87874,9.65243 -0.0775,2.15497 -0.15609,4.30885 -0.23563,6.46178 0.13954,2.14058 0.41561,6.41863 0.41561,6.41863 z" />
    <path
       style="fill:#000000;stroke:#000000;stroke-width:1px;stroke-linecap:butt;stroke-linejoin:miter;stroke-opacity:1"
       d="m 236.40296,384.04672 c 0.0704,2.01832 0.14079,4.03766 0.66669,7.39967 0.5259,3.36201 1.50684,8.06625 2.48804,12.77173 2.49635,0.0548 4.99372,0.10956 7.44752,0.0787 2.4538,-0.0308 4.86407,-0.14714 7.27534,-0.2635 -1.72047,-1.34997 -3.43984,-2.69907 -5.17542,-4.20546 -1.73559,-1.50639 -3.48616,-3.16925 -5.60567,-5.82532 -2.11951,-2.65607 -4.60837,-6.3065 -7.0965,-9.95585 z"
       id="path2796"
       inkscape:path-effect="#path-effect2798"
       inkscape:original-d="m 236.40296,384.04672 c 0,0 0.14175,4.03763 0.21113,6.05495 0.98223,4.70657 2.9436,14.11645 2.9436,14.11645 0,0 4.9937,0.11053 7.48905,0.1643 2.41232,-0.11536 7.23381,-0.34907 7.23381,-0.34907 0,0 -3.43994,-2.69894 -5.1614,-4.0499 -1.74964,-1.66192 -3.50021,-3.32478 -5.25181,-4.98867 -2.48717,-3.64843 -7.46438,-10.94806 -7.46438,-10.94806 z" />
    <path
       style="fill:#000000;stroke:#000000;stroke-width:1px;stroke-linecap:butt;stroke-linejoin:miter;stroke-opacity:1"
       d="m 226.73872,439.14285 c 2.30428,-1.77821 4.6087,-3.55653 6.75907,-4.75174 2.15037,-1.1952 4.14628,-1.80731 5.9328,-2.1049 1.78651,-0.29759 3.36216,-0.28086 4.93885,-0.26413 -1.28616,1.60511 -2.57242,3.21034 -3.78595,5.85268 -1.21354,2.64235 -2.35431,6.32128 -3.14514,9.5002 -0.79082,3.17893 -1.23172,5.85747 -1.26828,8.72494 -0.0366,2.86747 0.33094,5.92339 0.80874,8.5143 0.47779,2.59091 1.06532,4.7154 1.65318,6.8411 1.12802,-2.78173 2.25584,-5.56294 3.65824,-8.29842 1.40241,-2.73549 3.0791,-5.42437 5.60256,-8.30487 2.52347,-2.8805 5.89332,-5.95212 8.66721,-8.37802 2.77389,-2.4259 4.95159,-4.2059 6.92992,-5.68246 1.97833,-1.47657 3.75705,-2.64956 5.36509,-3.96891 1.60805,-1.31934 3.04556,-2.78512 4.47125,-4.3122 1.42568,-1.52707 2.8395,-3.11539 4.20411,-5.1034 1.36461,-1.98801 2.68026,-4.3762 3.99575,-6.7641 -0.14019,1.68405 -0.28046,3.36901 -0.83439,5.34348 -0.55393,1.97447 -1.52143,4.23971 -2.10111,6.38298 -0.57967,2.14328 -0.77161,4.16407 -0.72695,5.76684 0.0447,1.60278 0.32556,2.7872 0.6268,3.86588 0.30124,1.07868 0.62229,2.05031 0.94375,3.02316 0.45732,-2.22956 0.91449,-4.45836 1.7646,-6.89868 0.85011,-2.44032 2.093,-5.09097 3.47416,-7.72225 1.38117,-2.63128 2.9005,-5.24289 4.99196,-7.9719 2.09145,-2.72901 4.75473,-5.57495 7.23314,-8.33009 2.47841,-2.75514 4.77182,-5.41935 6.96296,-8.05066 2.19114,-2.63132 4.2799,-5.22963 6.06638,-8.47627 1.78648,-3.24664 3.27068,-7.14182 4.43842,-10.45783 1.16773,-3.316 2.01891,-6.05272 2.58752,-10.06888 0.56861,-4.01617 0.85447,-9.31182 1.00163,-13.84688 0.14716,-4.53507 0.15556,-8.30935 0.0951,-11.76893 -0.0604,-3.45957 -0.18965,-6.60427 -0.38799,-9.37797 -0.19834,-2.77369 -0.46596,-5.17737 -0.73346,-7.58001 -0.44206,2.49478 -0.88426,4.99036 -1.66708,9.14475 -0.78281,4.15439 -1.90633,9.96817 -2.9007,14.90878 -0.99437,4.9406 -1.85952,9.00777 -3.03392,13.13443 -1.17441,4.12665 -2.65794,8.31273 -4.12609,12.03258 -1.46815,3.71984 -2.92082,6.97333 -4.95822,10.51821 -2.03741,3.54488 -4.65947,7.38117 -6.66811,10.02328 -2.00864,2.6421 -3.40386,4.09007 -4.79912,5.53808 -2.28106,0.61551 -4.56143,1.23084 -7.1937,1.93021 -2.63227,0.69937 -5.61564,1.48256 -8.35006,2.05923 -2.73443,0.57667 -5.21989,0.94674 -8.20698,1.15745 -2.98708,0.21071 -6.47576,0.26195 -10.05724,0.1713 -3.58147,-0.0906 -7.25558,-0.32327 -10.56639,-0.42815 -3.31081,-0.10487 -6.25805,-0.0819 -8.19744,0.0618 -1.93939,0.14371 -2.8705,0.40838 -3.5705,0.7425 -0.7,0.33412 -1.16828,0.73753 -1.676,1.26486 -0.50773,0.52732 -1.05473,1.17835 -1.62907,2.38189 -0.57433,1.20354 -1.17586,2.95901 -1.62157,4.79053 -0.44571,1.83152 -0.73564,3.73871 -0.87092,6.29097 -0.13529,2.55227 -0.11606,5.74822 -0.0968,8.94526 0,0 -3e-5,0 -3e-5,0 z"
       id="path2800"
       inkscape:path-effect="#path-effect2802"
       inkscape:original-d="m 226.73872,439.14285 c 0,0 4.60956,-3.55542 6.91283,-5.33462 1.99698,-0.61113 3.99289,-1.22324 5.98782,-1.83635 1.57772,0.0177 4.73007,0.0502 4.73007,0.0502 0,0 -2.57132,3.21122 -3.85848,4.81533 -1.13981,3.68007 -2.28059,7.359 -3.42238,11.037 -0.43993,2.67966 -0.88082,5.35821 -1.32273,8.03581 0.36852,3.05705 0.73603,6.11297 1.10255,9.16797 0.58887,2.12674 1.76359,6.37711 1.76359,6.37711 0,0 2.25705,-5.56245 3.38407,-8.34519 1.67775,-2.68799 3.35444,-5.37687 5.03016,-8.06681 3.37099,-3.07075 6.74084,-6.14237 10.10977,-9.21506 2.17879,-1.77906 4.35649,-3.55906 6.53323,-5.34008 1.77979,-1.17204 3.55851,-2.34503 5.33627,-3.51905 1.43858,-1.46484 2.87609,-2.93062 4.31264,-4.39744 1.41487,-1.58738 2.82869,-3.1757 4.24153,-4.76506 1.31652,-2.38694 3.94646,-7.16369 3.94646,-7.16369 0,0 -0.27938,3.3691 -0.42057,5.05215 -0.96654,2.26632 -1.93405,4.53155 -2.90257,6.79583 -0.19095,2.02186 -0.38289,4.04265 -0.57583,6.06247 0.2819,1.18546 0.5628,2.36988 0.8427,3.55333 0.32247,0.97388 0.96437,2.91856 0.96437,2.91856 0,0 0.91565,-4.45812 1.37197,-6.68868 1.24394,-2.64976 2.48683,-5.30041 3.72875,-7.95212 1.52039,-2.61072 3.03972,-5.22234 4.55809,-7.83501 2.66439,-2.84507 5.32767,-5.69101 7.99001,-8.53801 2.29452,-2.66332 4.58793,-5.32753 6.88039,-7.99279 2.08984,-2.59741 4.1786,-5.19572 6.2664,-7.79507 1.48527,-3.89435 2.96948,-7.78953 4.45272,-11.6858 0.85222,-2.73583 1.7034,-5.47255 2.5536,-8.21034 0.28687,-5.29485 0.57273,-10.5905 0.8576,-15.88724 0.009,-3.77345 0.0178,-7.54773 0.0252,-11.32309 -0.12825,-3.14383 -0.2575,-6.28853 -0.38775,-9.43429 -0.2665,-2.40169 -0.80251,-7.20791 -0.80251,-7.20791 0,0 -0.88312,4.99056 -1.32618,7.48435 -1.12256,5.81501 -2.24608,11.62879 -3.37062,17.44169 -0.86419,4.06834 -1.72934,8.13551 -2.59551,12.20176 -1.48259,4.18724 -2.96613,8.37332 -4.4507,12.5585 -1.45173,3.25462 -2.90439,6.50811 -4.35809,9.76067 -2.62117,3.83744 -5.24323,7.67374 -7.86635,11.5091 -1.39429,1.44904 -4.18579,4.34404 -4.18579,4.34404 0,0 -4.56111,1.23203 -6.84317,1.84654 -2.98249,0.78422 -5.96586,1.56742 -8.95029,2.34962 -2.48456,0.37108 -4.97002,0.74114 -7.45653,1.11021 -3.48782,0.0522 -6.9765,0.10348 -10.46626,0.15372 -3.67326,-0.23162 -7.34737,-0.46423 -11.02256,-0.69785 -2.94636,0.0239 -5.8936,0.0468 -8.84191,0.0688 -0.93014,0.26568 -1.86125,0.53035 -2.79338,0.79403 -0.46729,0.40444 -0.93556,0.80786 -1.40485,1.21028 -0.54601,0.65206 -1.09301,1.30309 -1.64101,1.95313 -0.60055,1.75654 -1.20208,3.51201 -1.80463,5.26653 -0.28894,1.90828 -0.57887,3.81547 -0.86981,5.72171 0.0202,3.19811 0.0577,9.59111 0.0577,9.59111 z"
       sodipodi:nodetypes="cccccccccccccccccccccccccccccccccccccccccccccccccccccc" />
    <path
       style="fill:#000000;stroke:#000000;stroke-width:1px;stroke-linecap:butt;stroke-linejoin:miter;stroke-opacity:1"
       d="m 257.95781,513.3154 c 1.44887,-4.32354 2.89754,-8.64648 4.17463,-13.20498 1.2771,-4.55849 2.38233,-9.35186 3.1509,-13.16559 0.76856,-3.81373 1.20037,-6.64769 1.45218,-9.53906 0.25181,-2.89137 0.3235,-5.84011 0.3664,-8.24146 0.0429,-2.40134 0.057,-4.25517 0.24036,-6.39195 0.18337,-2.13677 0.53609,-4.5562 1.32218,-7.95249 0.78609,-3.39629 2.00573,-7.76971 3.22522,-12.14255 -1.83173,2.22175 -3.66354,4.4436 -5.58384,7.35182 -1.9203,2.90823 -3.91072,6.46984 -5.83139,10.01637 -1.92067,3.54654 -3.76233,7.06138 -5.18756,10.98505 -1.42524,3.92367 -2.43399,8.25557 -2.85239,12.36867 -0.4184,4.1131 -0.24664,8.00684 0.0802,11.24053 0.32681,3.2337 0.80849,5.80707 1.74169,8.80989 0.93319,3.00283 2.31707,6.43365 3.70147,9.86575 0,0 -2e-5,0 -2e-5,0 z"
       id="path3050"
       inkscape:path-effect="#path-effect3052"
       inkscape:original-d="m 257.95781,513.3154 c 0,0 2.89874,-8.64608 4.34661,-12.97062 1.10628,-4.79258 2.21152,-9.58595 3.31578,-14.38043 0.43283,-2.83308 0.86464,-5.66704 1.29546,-8.50206 0.0727,-2.94786 0.14438,-5.89661 0.21507,-8.84641 0.0151,-1.8529 0.0292,-3.70673 0.0423,-5.5616 0.35373,-2.41853 0.70646,-4.83796 1.05819,-7.25844 1.22051,-4.37193 3.65846,-13.11852 3.65846,-13.11852 0,0 -3.66245,4.4445 -5.49518,6.66525 -1.99929,3.6002 -3.99818,7.15708 -5.99878,10.73411 -1.84073,3.516 -3.6824,7.03084 -5.5251,10.54475 -1.0078,4.33307 -2.01656,8.66497 -3.02633,12.99596 0.17276,3.8949 0.34452,7.78864 0.51528,11.68145 0.4827,2.57447 0.96438,5.14784 1.44507,7.72026 1.38542,3.43317 4.15319,10.2963 4.15319,10.2963 z" />
    <path
       style="fill:#000000;stroke:#000000;stroke-width:1px;stroke-linecap:butt;stroke-linejoin:miter;stroke-opacity:1"
       d="m 280.88658,508.40832 c 0.79232,-3.36506 1.58447,-6.72941 2.81338,-10.391 1.22891,-3.66159 2.89439,-7.61933 4.4738,-11.05868 1.5794,-3.43935 3.07262,-6.36001 4.55811,-9.09238 1.48548,-2.73236 2.96312,-5.27618 4.54709,-7.73307 1.58398,-2.4569 3.27414,-4.82659 5.26378,-7.57428 1.98964,-2.74769 4.27863,-5.87316 6.4753,-8.73205 2.19667,-2.85888 4.30086,-5.45094 6.57836,-8.14527 2.2775,-2.69434 4.72815,-5.49075 7.31596,-8.92492 2.58781,-3.43418 5.31272,-7.50605 7.19547,-10.40873 1.88274,-2.90268 2.92325,-4.63608 4.01928,-6.73255 1.09602,-2.09647 2.24752,-4.55603 3.26516,-7.25227 1.01763,-2.69625 1.90133,-5.62922 2.57113,-8.78504 0.66979,-3.15583 1.12557,-6.53453 1.19563,-10.16443 0.0701,-3.6299 -0.24578,-7.51101 -0.63313,-10.80398 -0.38736,-3.29298 -0.8463,-5.99768 -1.71432,-9.19115 -0.86803,-3.19347 -2.1453,-6.87555 -3.36098,-10.30449 -1.21568,-3.42893 -2.36972,-6.60453 -3.48734,-9.2088 -1.11762,-2.60428 -2.19959,-4.63828 -3.28095,-6.67113 0.0652,2.652 0.13037,5.30502 0.15891,8.29366 0.0285,2.98863 0.0205,6.31379 -0.0204,10.25684 -0.0409,3.94304 -0.11465,8.50374 -0.26436,11.98701 -0.14971,3.48327 -0.37532,5.889 -0.62277,8.24098 -0.24746,2.35199 -0.51674,4.65014 -0.97869,7.09702 -0.46195,2.44687 -1.11646,5.0425 -1.79969,7.45864 -0.68323,2.41614 -1.39512,4.65273 -2.2583,6.63626 -0.86319,1.98354 -1.87763,3.71422 -3.33693,5.86709 -1.45929,2.15287 -3.36339,4.72794 -5.52843,7.28332 -2.16503,2.55538 -4.59097,5.09106 -6.61531,7.15168 -2.02434,2.06061 -3.64699,3.64607 -5.38101,5.45875 -1.73401,1.81267 -3.57922,3.85238 -5.37948,6.07709 -1.80027,2.2247 -3.5554,4.63415 -5.27093,7.05936 -1.71553,2.42521 -3.39133,4.86602 -4.98116,7.31102 -1.58983,2.445 -3.09355,4.89396 -4.26346,7.08309 -1.16992,2.18912 -2.00594,4.1181 -2.681,6.19368 -0.67507,2.07559 -1.18919,4.29742 -1.52949,6.60325 -0.3403,2.30583 -0.50687,4.69531 -0.57852,7.45298 -0.0716,2.75767 -0.0485,5.88329 0.13386,8.81822 0.1823,2.93493 0.52358,5.67891 0.81493,7.90299 0.29135,2.22408 0.53273,3.92813 0.95565,5.66527 0.42292,1.73714 1.02667,3.50596 1.63084,5.27602 0,0 5e-5,0 5e-5,0 z"
       id="path3054"
       inkscape:path-effect="#path-effect3056"
       inkscape:original-d="m 280.88658,508.40832 c 0,0 1.58564,-6.72913 2.37696,-10.09519 1.66654,-3.95689 3.33202,-7.91463 4.99653,-11.87344 1.49428,-2.91979 2.98751,-5.84045 4.47977,-8.76218 1.4787,-2.54292 2.95633,-5.08674 4.433,-7.63161 1.69124,-2.36879 3.38139,-4.73849 5.07059,-7.10924 2.29008,-3.12461 4.57906,-6.25009 6.8671,-9.37664 2.10527,-2.59116 4.20946,-5.18321 6.31269,-7.77632 2.45174,-2.79552 4.90239,-5.59193 7.35208,-8.38939 2.72602,-4.07105 5.45093,-8.14292 8.1749,-12.21588 1.04155,-1.73246 2.08206,-3.46586 3.12159,-5.20029 1.15255,-2.45865 2.30405,-4.91821 3.45457,-7.37882 0.88473,-2.93209 1.76842,-5.86506 2.65115,-8.79908 0.4568,-3.37784 0.91258,-6.75654 1.36736,-10.1363 -0.31486,-3.88026 -0.63071,-7.76137 -0.94756,-11.64356 -0.45796,-2.70383 -0.9169,-5.40853 -1.37685,-8.1143 -1.27633,-3.68123 -2.5536,-7.36331 -3.8319,-11.04647 -1.15308,-3.17472 -2.30712,-6.35031 -3.46217,-9.52695 -1.08039,-2.0319 -3.24408,-6.09856 -3.24408,-6.09856 0,0 0.13135,5.305 0.19552,7.956 -0.007,3.32629 -0.0151,6.65145 -0.0242,9.97568 -0.0727,4.56188 -0.14648,9.12258 -0.22122,13.68238 -0.22461,2.40682 -0.45022,4.81255 -0.67683,7.21731 -0.26829,2.29924 -0.53756,4.59739 -0.80785,6.89458 -0.65354,2.59673 -1.30805,5.19236 -1.96358,7.78703 -0.71091,2.23769 -1.4228,4.47428 -2.1357,6.70992 -1.01349,1.73174 -2.02793,3.46242 -3.0434,5.19213 -1.90318,2.57617 -3.80728,5.15124 -5.71241,7.72536 -2.42504,2.53679 -4.85098,5.07247 -7.27798,7.60721 -1.62171,1.58653 -3.24436,3.17199 -4.86805,4.75648 -1.84428,2.04079 -3.68949,4.0805 -5.53574,6.11925 -1.7542,2.41053 -3.50933,4.81998 -5.2655,7.22847 -1.67487,2.4419 -3.35068,4.88271 -5.02752,7.32257 -1.50278,2.45007 -3.0065,4.89903 -4.51126,7.34705 -0.83504,1.93004 -1.67106,3.85901 -2.50809,5.78701 -0.51313,2.22292 -1.02725,4.44475 -1.54239,6.66563 -0.16558,2.39058 -0.33215,4.78006 -0.49972,7.16859 0.0242,3.12673 0.0474,6.25235 0.0696,9.37702 0.34229,2.74509 0.68356,5.48907 1.02384,8.2321 0.2424,1.70512 0.48379,3.40917 0.72418,5.11226 0.60519,1.77111 1.81252,5.31019 1.81252,5.31019 z" />
    <path
       style="fill:#000000;stroke:#000000;stroke-width:1px;stroke-linecap:butt;stroke-linejoin:miter;stroke-opacity:1"
       d="m 373.40617,371.8167 c -2.14729,-3.02216 -4.29377,-6.04317 -7.05902,-8.70961 -2.76524,-2.66644 -6.14865,-4.97671 -10.88519,-7.93696 -4.73654,-2.96025 -10.82713,-6.57091 -16.91666,-10.18094 1.92414,3.07735 3.84901,6.15586 5.88534,9.83913 2.03633,3.68326 4.18489,7.97225 5.71419,12.03423 1.52929,4.06197 2.43955,7.89672 3.11242,12.1337 0.67286,4.23698 1.10848,8.87601 1.06728,13.05627 -0.0412,4.18027 -0.55896,7.90177 -1.51145,12.05242 -0.95249,4.15065 -2.33956,8.7304 -4.09534,13.00147 -1.75579,4.27108 -3.88019,8.23353 -6.7659,13.07912 -2.8857,4.84558 -6.53254,10.57412 -10.35685,16.03813 -3.8243,5.46402 -7.82588,10.6633 -11.73266,15.70914 -3.90678,5.04583 -7.71852,9.93791 -10.87608,14.21053 -3.15755,4.27263 -5.6607,7.92547 -8.13872,11.97498 -2.47802,4.04952 -4.93071,8.49531 -6.67622,12.54436 -1.74551,4.04906 -2.78373,7.70084 -3.5037,10.98905 -0.71996,3.28821 -1.12169,6.21247 -1.05129,9.27632 0.0704,3.06386 0.61263,6.26683 1.41589,9.54829 0.80325,3.28146 1.86731,6.64117 3.65183,10.06181 1.78453,3.42065 4.28898,6.90211 6.59929,9.76903 2.31032,2.86693 4.42526,5.11825 6.54121,7.37064 -0.019,-2.92865 -0.0381,-5.8563 0.0583,-9.48686 0.0963,-3.63055 0.30803,-7.96277 0.81721,-12.45516 0.50919,-4.49239 1.3159,-9.14452 2.32303,-13.57031 1.00714,-4.4258 2.21468,-8.62484 3.73472,-12.48772 1.52003,-3.86288 3.35248,-7.38911 5.46631,-10.9477 2.11382,-3.55859 4.50883,-7.14918 7.26597,-11.00445 2.75713,-3.85527 5.87618,-7.97491 8.94284,-11.78602 3.06666,-3.81111 6.08072,-7.3134 9.68011,-11.6545 3.59939,-4.34109 7.78392,-9.52075 11.02405,-13.57625 3.24013,-4.05549 5.53569,-6.98662 8.61557,-10.45789 3.07988,-3.47128 6.9438,-7.48238 10.6577,-11.19409 3.7139,-3.71171 7.27754,-7.12379 11.6722,-11.50132 4.39467,-4.37752 9.62015,-9.72026 14.84572,-15.0631 0.40861,-2.99747 0.8171,-5.99409 1.18777,-9.71078 0.37068,-3.71668 0.70336,-8.15248 0.91789,-12.65207 0.21454,-4.49959 0.31086,-9.06274 0.3284,-13.705 0.0175,-4.64227 -0.0437,-9.36339 -0.54079,-14.35693 -0.49706,-4.99355 -1.43004,-10.25935 -2.82524,-15.60937 -1.3952,-5.35002 -3.25273,-10.784 -5.25181,-15.56379 -1.99908,-4.77978 -4.13979,-8.90509 -6.60424,-13.1089 -2.46444,-4.20381 -5.25261,-8.48581 -7.33972,-11.39928 -2.08711,-2.91347 -3.47418,-4.45918 -4.86034,-6.00388 0.68035,3.82996 1.3609,7.66105 1.91769,11.86486 0.55679,4.2038 0.9901,8.78132 1.28168,13.79927 0.29158,5.01794 0.44148,10.47604 0.31912,14.67049 -0.12236,4.19446 -0.51683,7.12522 -0.88463,10.20389 -0.3678,3.07867 -0.70893,6.305 -1.542,10.1877 -0.83307,3.88269 -2.15792,8.42172 -3.17757,11.98263 -1.01964,3.56091 -1.73385,6.1428 -2.44825,8.72542 0,0 -2e-5,0 -2e-5,0 z"
       id="path3058"
       inkscape:path-effect="#path-effect3060"
       inkscape:original-d="m 373.40617,371.8167 c 0,0 -4.29358,-6.04331 -6.44187,-9.06647 -3.38254,-2.30936 -6.76595,-4.61964 -10.15042,-6.93095 -6.08864,-3.6091 -18.26858,-10.83009 -18.26858,-10.83009 0,0 3.84928,6.15569 5.77242,9.23204 2.14965,4.29015 4.29821,8.57914 6.44582,12.86721 0.9113,3.83591 1.82156,7.67066 2.73084,11.5045 0.43663,4.64021 0.87224,9.27924 1.30687,13.91735 -0.5168,3.72265 -1.03457,7.44415 -1.55335,11.16473 -1.38612,4.58093 -2.77318,9.16068 -4.16127,13.73951 -2.12348,3.9636 -4.24789,7.92605 -6.37333,11.88756 -3.646,5.72976 -7.29285,11.45829 -10.94076,17.18595 -4.00074,5.20049 -8.00232,10.39978 -12.00498,15.59817 -3.8109,4.89328 -7.62265,9.78536 -11.43547,14.67654 -2.50225,3.65399 -5.00539,7.30684 -7.50959,10.95876 -2.4518,4.44697 -4.9045,8.89276 -7.35824,13.33764 -1.03727,3.65292 -2.0755,7.3047 -3.11474,10.95554 -0.40075,2.92539 -0.80249,5.84965 -1.20523,8.77298 0.54324,3.20409 1.08547,6.40706 1.6267,9.60909 1.0651,3.36083 2.12915,6.72054 3.19222,10.07931 2.50554,3.48259 5.00999,6.96405 7.51348,10.44456 2.11699,2.25344 6.34785,6.75718 6.34785,6.75718 0,0 -0.0371,-5.85631 -0.0571,-8.78596 0.21272,-4.3314 0.42443,-8.66362 0.63515,-12.99693 0.80774,-4.65132 1.61446,-9.30345 2.42019,-13.95669 1.20858,-4.19821 2.41613,-8.39725 3.62269,-12.59737 1.83352,-3.52536 3.66597,-7.05159 5.49746,-10.57889 2.39611,-3.58973 4.79113,-7.18032 7.18519,-10.77198 3.12017,-4.11881 6.23921,-8.23845 9.35732,-12.35917 3.01517,-3.50142 6.02923,-7.00371 9.04233,-10.50706 4.1857,-5.17888 8.37023,-10.35854 12.55385,-15.5393 2.29666,-2.93024 4.59221,-5.86137 6.88682,-8.79356 3.86507,-4.01025 7.72899,-8.02134 11.59198,-12.03352 3.56477,-3.41121 7.12841,-6.82329 10.6911,-10.23643 5.22667,-5.34194 15.67671,-16.02851 15.67671,-16.02851 0,0 0.81821,-5.99394 1.22582,-8.99241 0.3337,-4.43497 0.66638,-8.87077 0.99807,-13.30767 0.0973,-4.56234 0.19366,-9.12549 0.28898,-13.68974 -0.0603,-4.72031 -0.12156,-9.44143 -0.18384,-14.16364 -0.93202,-5.26501 -1.865,-10.53081 -2.799,-15.79772 -1.85661,-5.43319 -3.71415,-10.86717 -5.57271,-16.30225 -2.1398,-4.12449 -4.28051,-8.2498 -6.42226,-12.3762 -2.78728,-4.28118 -5.57545,-8.56318 -8.36467,-12.84628 -1.38519,-1.54373 -4.15847,-4.63409 -4.15847,-4.63409 0,0 1.3617,7.66091 2.04105,11.48987 0.43432,4.57871 0.86763,9.15623 1.29996,13.73284 0.15091,5.45933 0.30081,10.91743 0.44972,16.37465 -0.39348,2.93187 -0.78796,5.86263 -1.18343,8.79246 -0.34015,3.22747 -0.68127,6.45381 -1.02341,9.67921 -1.32391,4.54022 -2.64876,9.07925 -3.97464,13.61738 -0.71342,2.58367 -2.14321,7.74785 -2.14321,7.74785 z" />
    <path
       style="fill:#000000;stroke:#000000;stroke-width:1px;stroke-linecap:butt;stroke-linejoin:miter;stroke-opacity:1"
       d="m 413.74409,388.07189 c 2.0875,-2.74687 4.17488,-5.49359 6.07605,-9.19963 1.90116,-3.70604 3.61601,-8.37147 5.27219,-13.28489 1.65619,-4.91341 3.2536,-10.0746 4.36857,-15.3004 1.11498,-5.2258 1.74738,-10.51615 2.20465,-15.74635 0.45728,-5.23021 0.73936,-10.40001 0.72231,-15.06049 -0.0171,-4.66048 -0.33338,-8.81148 -0.77175,-13.18668 -0.43837,-4.3752 -0.99882,-8.97438 -1.83711,-13.91794 -0.8383,-4.94356 -1.95451,-10.23127 -3.04734,-15.33485 -1.09283,-5.10358 -2.16223,-10.02272 -3.73013,-15.63763 -1.5679,-5.61491 -3.63473,-11.92646 -5.70121,-18.23694 0,3.159 0,6.319 -0.36299,10.64653 -0.36299,4.32752 -1.08883,9.8235 -2.21444,15.57008 -1.12561,5.74657 -2.65085,11.74354 -3.81838,15.92345 -1.16752,4.17992 -1.97705,6.54209 -2.7868,8.9049 -2.40616,-1.68376 -4.81117,-3.36672 -7.78677,-4.82372 -2.9756,-1.457 -6.52175,-2.68721 -10.06677,-3.91703 2.67077,3.77806 5.34235,7.55727 7.73758,11.42019 2.39524,3.86293 4.51502,7.81051 6.52207,11.91402 2.00706,4.10351 3.90137,8.3627 5.31677,12.50564 1.41541,4.14295 2.35208,8.16944 3.14999,12.65604 0.7979,4.4866 1.45712,9.43311 1.74679,14.64803 0.28968,5.21491 0.20996,10.69807 0.11579,15.54997 -0.0942,4.85191 -0.2028,9.07231 -0.39008,12.95188 -0.18728,3.87956 -0.4531,7.41719 -0.71899,10.95582 z"
       id="path3062"
       inkscape:path-effect="#path-effect3064"
       inkscape:original-d="m 413.74409,388.07189 c 0,0 4.176,-5.49274 6.2625,-8.24062 1.71591,-4.66461 3.43077,-9.33004 5.14465,-13.99656 1.59848,-5.16038 3.19588,-10.32157 4.79232,-15.48385 0.63342,-5.28956 1.26582,-10.57991 1.89723,-15.87138 0.28309,-5.16901 0.56517,-10.33881 0.84626,-15.50973 -0.31533,-4.15017 -0.63165,-8.30117 -0.94897,-12.45325 -0.55947,-4.59836 -1.11992,-9.19754 -1.68138,-13.7978 -1.11525,-5.28691 -2.23145,-10.57462 -3.34868,-15.86343 -1.06844,-4.91835 -2.13784,-9.83749 -3.20826,-14.75774 -2.06552,-6.30961 -6.19944,-18.93144 -6.19944,-18.93144 0,0 10e-4,6.319 0,9.477 -0.72486,5.4972 -1.4507,10.99318 -2.17756,16.48827 -1.5243,5.99821 -3.04954,11.99518 -4.57581,17.99127 -0.80876,2.36385 -2.42924,7.08842 -2.42924,7.08842 0,0 -4.81131,-3.36653 -7.21848,-5.05129 -3.54409,-1.22885 -10.63506,-3.68946 -10.63506,-3.68946 0,0 5.34254,7.55713 8.01231,11.33419 2.12086,3.94874 4.24065,7.89632 6.35947,11.84297 1.89539,4.26035 3.78971,8.51954 5.68306,12.77781 0.93771,4.02766 1.87439,8.05415 2.81008,12.07972 0.66024,4.94769 1.31946,9.8942 1.97769,14.83979 -0.0787,5.48437 -0.15844,10.96752 -0.23915,16.44979 -0.10763,4.22156 -0.21624,8.44196 -0.32586,12.66143 -0.2649,3.53971 -0.79768,10.61589 -0.79768,10.61589 z" />
    <path
       style="fill:#000000;stroke:#000000;stroke-width:1px;stroke-linecap:butt;stroke-linejoin:miter;stroke-opacity:1"
       d="m 316.27684,553.96381 c 4.64527,-4.6584 9.29055,-9.31681 14.00663,-13.91786 4.71609,-4.60105 9.50279,-9.14456 14.3237,-13.38929 4.82092,-4.24473 9.67569,-8.19038 13.96746,-11.50523 4.29177,-3.31485 8.02022,-5.99865 13.78284,-9.57273 5.76261,-3.57407 13.55887,-8.03812 19.72701,-11.53039 6.16813,-3.49226 10.70779,-6.01254 16.11393,-9.32712 5.40614,-3.31458 11.67852,-7.42327 17.24587,-11.15558 5.56735,-3.73232 10.42937,-7.08806 14.47142,-10.28516 4.04206,-3.19711 7.26412,-6.2355 10.0438,-9.36798 2.77968,-3.13248 5.117,-6.35906 7.53628,-10.21683 2.41929,-3.85776 4.92046,-8.34662 6.90901,-12.47798 1.98855,-4.13137 3.4644,-7.90518 5.21806,-12.79521 1.75365,-4.89002 3.78521,-10.89659 5.81661,-16.90269 -0.1545,5.10212 -0.30903,10.20522 -0.75039,15.46849 -0.44136,5.26328 -1.16946,10.6876 -2.24243,15.64679 -1.07297,4.95919 -2.49066,9.4532 -4.20946,13.39923 -1.7188,3.94603 -3.7386,7.34416 -6.76533,11.21565 -3.02673,3.87149 -7.06031,8.21635 -11.22179,11.81449 -4.16147,3.59814 -8.45086,6.44957 -13.0902,9.30482 -4.63934,2.85526 -9.62844,5.71421 -15.39731,8.94704 -5.76887,3.23282 -12.31716,6.83931 -18.41598,10.34724 -6.09882,3.50794 -11.74776,6.9171 -15.99797,9.47527 -4.25022,2.55817 -7.1015,4.26523 -9.59745,6.08663 -2.49596,1.82139 -4.63623,3.7569 -6.03391,5.20221 -1.39768,1.44531 -2.05237,2.39989 -2.70721,3.3547 4.57354,-0.62786 9.14793,-1.25584 14.5968,-2.17594 5.44888,-0.92011 11.77291,-2.13238 18.35717,-3.57379 6.58426,-1.44142 13.42841,-3.11186 19.52248,-4.61762 6.09406,-1.50577 11.43768,-2.84677 17.48709,-4.92845 6.04941,-2.08169 12.80442,-4.90388 18.54602,-7.44238 5.7416,-2.53849 10.46953,-4.79316 15.44527,-8.11059 4.97574,-3.31743 10.19932,-7.69753 15.24846,-12.07832 5.04915,-4.38079 9.92359,-8.76202 14.45496,-14.25977 4.53137,-5.49775 8.71962,-12.11197 12.03428,-18.23184 3.31467,-6.11986 5.7556,-11.74523 7.74527,-17.08156 1.98966,-5.33632 3.52794,-10.38346 4.60731,-15.361 1.07938,-4.97754 1.69971,-9.88541 2.35526,-15.3634 0.65555,-5.478 1.34627,-11.52577 1.76858,-16.90249 0.42232,-5.37673 0.57612,-10.08218 0.34701,-14.48584 -0.22911,-4.40366 -0.84133,-8.50542 -1.76048,-12.64374 -0.91914,-4.13832 -2.14533,-8.31302 -3.58012,-12.58497 -1.4348,-4.27194 -3.0782,-8.64088 -4.23602,-11.6385 -1.15782,-2.99761 -1.83054,-4.62495 -2.50278,-6.25112 2.51307,3.13757 5.02701,6.27623 7.55417,9.9301 2.52716,3.65386 5.06846,7.82379 6.65486,10.80179 1.5864,2.97799 2.21769,4.76268 2.84942,6.54861 2.34127,0.58371 4.68372,1.16771 8.1393,1.73369 3.45557,0.56598 8.02533,1.11437 12.37704,1.51865 4.3517,0.40428 8.48512,0.6645 12.35515,0.5317 3.87004,-0.13279 7.47667,-0.6584 10.82916,-1.21019 3.35249,-0.55179 6.45069,-1.12971 8.78054,-1.69202 2.32985,-0.56232 3.89086,-1.10875 5.45247,-1.65539 -2.35908,1.24622 -4.7178,2.49224 -7.6815,3.8288 -2.96369,1.33656 -6.532,2.76341 -10.88129,4.00908 -4.34929,1.24566 -9.47952,2.31002 -14.45451,2.66202 -4.97499,0.352 -9.79474,-0.009 -13.45701,-0.39812 -3.66228,-0.38951 -6.16804,-0.80818 -8.67274,-1.22668 1.03222,4.38468 2.06472,8.77054 2.66499,12.93721 0.60026,4.16667 0.7688,8.11531 0.80882,10.56171 0.04,2.4464 -0.0482,3.38968 -0.13661,4.33388 2.84799,-0.59547 5.69674,-1.1911 10.75347,-2.48507 5.05673,-1.29396 12.32198,-3.28631 19.09727,-5.66795 6.77529,-2.38163 13.0604,-5.15238 18.04239,-7.61433 4.982,-2.46194 8.66076,-4.61497 12.49727,-7.17062 3.83652,-2.55564 7.83071,-5.5138 11.2917,-8.54893 3.46099,-3.03512 6.38878,-6.14717 9.12275,-8.97787 2.73396,-2.8307 5.27393,-5.37986 8.3336,-9.34005 3.05966,-3.96018 6.63915,-9.3316 10.21855,-14.70289 -2.8809,0.17257 -5.76086,0.34509 -10.01289,0.13358 -4.25203,-0.2115 -9.87512,-0.80724 -15.65347,-1.79626 -5.77835,-0.98902 -11.7117,-2.37142 -16.86203,-4.06088 -5.15034,-1.68946 -9.5174,-3.68615 -14.08935,-6.46331 -4.57195,-2.77716 -9.34843,-6.3349 -14.19571,-10.57949 -4.84728,-4.2446 -9.76494,-9.17595 -14.23504,-14.06598 -4.4701,-4.89002 -8.4923,-9.73853 -12.52901,-14.70719 -4.0367,-4.96866 -8.08767,-10.05719 -11.53826,-13.99773 -3.45058,-3.94053 -6.30072,-6.73273 -9.69143,-10.1317 -3.3907,-3.39897 -7.32173,-7.40453 -11.36812,-11.15309 -4.04639,-3.74856 -8.20799,-7.23981 -12.79214,-10.89197 -4.58414,-3.65216 -9.5906,-7.46496 -13.3368,-9.94401 -3.7462,-2.47904 -6.23202,-3.6239 -9.88717,-5.14712 -3.65515,-1.52322 -8.47937,-3.42462 -12.28623,-4.72437 -3.80685,-1.29976 -6.59609,-1.99763 -10.24913,-3.0356 -3.65303,-1.03798 -8.17083,-2.41642 -12.68753,-3.79452 0,0 -3.48223,13.34147 -3.48223,13.34147 3.50212,1.20479 7.00544,2.40999 10.79105,4.73121 3.78561,2.32121 7.85467,5.75821 11.76282,9.49743 3.90815,3.73921 7.65526,7.78026 10.36518,10.95844 2.70991,3.17817 4.38182,5.49206 6.05457,7.80713 -3.19513,-2.30045 -6.38913,-4.60008 -9.92645,-7.01661 -3.53732,-2.41653 -7.4167,-4.94897 -10.88422,-6.84141 -3.46751,-1.89244 -6.523,-3.1445 -9.30309,-4.09851 -2.78009,-0.954 -5.28459,-1.6097 -7.51217,-2.08373 -2.22759,-0.47403 -4.1792,-0.76639 -6.12972,-1.05859 2.88878,2.74683 5.77858,5.49463 9.15256,8.98338 3.37399,3.48875 7.23311,7.71919 11.0135,12.24112 3.78038,4.52194 7.48585,9.34015 10.43188,14.04411 2.94602,4.70396 5.13469,9.29584 7.0474,13.72688 1.91271,4.43104 3.54946,8.70096 4.91009,13.35693 1.36064,4.65596 2.44531,9.69771 3.33715,14.6992 0.89183,5.00149 1.59088,9.96245 1.93109,13.82658 0.3402,3.86413 0.32196,6.59252 0.36926,10.70676 0.0473,4.11424 0.16023,9.5946 -0.0273,15.5052 -0.18751,5.91061 -0.67536,12.25119 -1.0696,17.30486 -0.39425,5.05367 -0.69478,8.81924 -0.9954,12.58581 -0.23205,-4.39931 -0.46404,-8.79757 -0.65826,-12.5312 -0.19422,-3.73363 -0.3506,-6.80145 -0.60792,-10.63851 -0.25732,-3.83705 -0.61558,-8.44313 -1.16691,-13.35882 -0.55132,-4.91569 -1.29575,-10.14076 -2.22921,-15.36306 -0.93345,-5.22231 -2.05597,-10.44156 -3.29506,-15.7017 -1.23909,-5.26015 -2.59473,-10.56087 -4.43148,-15.62518 -1.83675,-5.06432 -4.15478,-9.89196 -6.40926,-13.98607 -2.25448,-4.09411 -4.44548,-7.45444 -7.06079,-10.33184 -2.6153,-2.87739 -5.6551,-5.27139 -8.46776,-7.31986 -2.81266,-2.04847 -5.39807,-3.75117 -7.80989,-4.80036 -2.41182,-1.04919 -4.65104,-1.44445 -6.88916,-1.83952 0.98803,2.70655 1.97649,5.4143 3.23705,9.68436 1.26056,4.27005 2.79372,10.10339 4.337,16.50003 1.54328,6.39665 3.09664,13.35621 4.12321,19.61969 1.02656,6.26348 1.52644,11.83059 1.96913,19.0488 0.44269,7.21821 0.82822,16.08709 0.60174,22.67531 -0.22647,6.58823 -1.06474,10.89571 -2.30106,16.32238 -1.23633,5.42668 -2.87063,11.9723 -5.95527,18.57416 -3.08464,6.60186 -7.61944,13.26008 -12.87025,20.39502 -5.25082,7.13495 -11.21737,14.74629 -17.30618,21.91872 -6.08881,7.17242 -12.29958,13.9056 -17.73224,19.61139 -5.43267,5.70579 -10.08697,10.3839 -13.41649,13.69422 -3.32952,3.31032 -5.33411,5.25268 -7.326,7.23998 -1.99189,1.98729 -3.97093,4.01937 -6.31538,6.94179 -2.34445,2.92243 -5.05403,6.73484 -8.17157,11.18884 -3.11754,4.454 -6.64284,9.5493 -9.59347,14.15765 -2.95062,4.60835 -5.32637,8.72936 -7.64026,12.99005 -2.3139,4.2607 -4.56579,8.66074 -6.6161,13.39412 -2.05031,4.73337 -3.89891,9.79961 -5.69647,15.1735 -1.79755,5.37388 -3.54395,11.055 -4.60757,15.39213 -1.06362,4.33713 -1.44437,7.32892 -1.82524,10.32164 0,0 3e-5,0 3e-5,0 z"
       id="path3066"
       inkscape:path-effect="#path-effect3068"
       inkscape:original-d="m 316.27684,553.96381 c 0,0 9.29155,-9.31581 13.93581,-13.9752 4.78788,-4.54269 9.57458,-9.08619 14.36036,-13.63078 4.85597,-3.94481 9.71074,-7.89046 14.5646,-11.83719 3.72961,-2.68292 7.45806,-5.36673 11.18558,-8.05159 7.79757,-4.46324 15.59383,-8.92729 23.38924,-13.39243 4.54084,-2.51938 9.0805,-5.03966 13.61924,-7.56099 6.27363,-4.10787 12.54602,-8.21655 18.81753,-12.32632 4.86322,-3.35487 9.72524,-6.71061 14.58635,-10.06742 3.22319,-3.03751 6.44524,-6.07591 9.66636,-9.11537 2.3384,-3.22571 4.67572,-6.45229 7.01208,-9.67994 2.50227,-4.48804 5.00344,-8.9769 7.50366,-13.46685 1.47691,-3.77296 2.95275,-7.54678 4.42762,-11.32168 2.03244,-6.00521 6.09419,-18.01829 6.09419,-18.01829 0,0 -0.308,10.20525 -0.4635,15.30637 -0.72713,5.42555 -1.45523,10.84987 -2.18435,16.27329 -1.41675,4.49519 -2.83444,8.9892 -4.25316,13.48231 -2.01889,3.39927 -4.03869,6.7974 -6.05955,10.19461 -4.03274,4.34603 -8.06632,8.6909 -12.10099,13.03484 -4.28855,2.85253 -8.57795,5.70395 -12.86842,8.55443 -4.98829,2.86006 -9.97739,5.71902 -14.96759,8.57703 -6.54756,3.60764 -13.09585,7.21413 -19.64527,10.81969 -5.64817,3.41029 -11.29711,6.81946 -16.94716,10.22768 -2.85038,1.70812 -5.70166,3.41518 -8.55398,5.12126 -2.13935,1.93658 -4.27962,3.87209 -6.42093,5.80663 -0.65385,0.95582 -1.96453,2.86442 -1.96453,2.86442 0,0 9.14808,-1.25472 13.72062,-1.88358 6.32528,-1.21132 12.64931,-2.42359 18.97248,-3.63689 6.84542,-1.6695 13.68957,-3.33995 20.53287,-5.01142 5.34484,-1.34005 10.68846,-2.68105 16.03119,-4.02308 6.75629,-2.82131 13.51131,-5.6435 20.26545,-8.46675 4.72912,-2.25375 9.45705,-4.50842 14.18408,-6.76412 5.22478,-4.37928 10.44836,-8.75939 15.67105,-13.14058 4.87564,-4.38041 9.75008,-8.76164 14.62362,-13.14396 4.18943,-6.61349 8.37768,-13.22771 12.56501,-19.84306 2.44203,-5.6246 4.88297,-11.24997 7.32295,-16.87644 1.53933,-5.04634 3.07761,-10.09348 4.61492,-15.14171 0.62135,-4.90707 1.24168,-9.81494 1.86103,-14.72392 0.69175,-6.04702 1.38247,-12.09479 2.07221,-18.14368 0.15482,-4.70466 0.30863,-9.41011 0.46144,-14.11667 -0.61124,-4.10091 -1.22346,-8.20267 -1.83669,-12.30551 -1.22524,-4.17387 -2.45143,-8.34857 -3.67865,-12.52436 -1.64247,-4.36812 -3.28587,-8.73706 -4.9303,-13.10708 -0.67125,-1.62521 -2.01672,-4.87851 -2.01672,-4.87851 0,0 5.02713,6.27614 7.53921,9.41271 2.5424,4.17108 5.08371,8.34101 7.62406,12.51001 0.63274,1.78696 1.89518,5.35778 1.89518,5.35778 0,0 4.68354,1.16842 7.02381,1.75113 4.57096,0.54941 9.14072,1.0978 13.70958,1.64519 4.13459,0.26123 8.26801,0.52145 12.40052,0.78068 3.60778,-0.52463 7.21441,-1.05024 10.82011,-1.57685 3.09933,-0.57694 6.19753,-1.15486 9.2948,-1.73379 1.56264,-0.54565 4.68484,-1.63992 4.68484,-1.63992 0,0 -4.71717,2.49343 -7.07725,3.73865 -3.56746,1.42791 -7.13577,2.85477 -10.70516,4.28065 -5.12943,1.0654 -10.25966,2.12976 -15.391,3.19314 -4.81895,-0.35962 -9.6387,-0.72023 -14.45955,-1.08185 -2.50376,-0.41751 -7.51409,-1.25549 -7.51409,-1.25549 0,0 2.06545,8.77037 3.09667,13.15405 0.16954,3.94979 0.33807,7.89843 0.50561,11.84615 -0.0874,0.94522 -0.26508,2.8326 -0.26508,2.8326 0,0 5.69698,-1.18994 8.54397,-1.78642 7.26655,-1.99143 14.53181,-3.98377 21.79623,-5.97717 6.28636,-2.76986 12.57147,-5.54061 18.85572,-8.31241 3.6799,-2.15211 7.35866,-4.30514 11.03648,-6.45921 3.99535,-2.95728 7.98954,-5.91544 11.98281,-8.87466 2.92891,-3.11118 5.8567,-6.22323 8.78355,-9.33635 2.54106,-2.54825 5.08103,-5.09741 7.62003,-7.64762 3.58048,-5.37039 10.73821,-16.11387 10.73821,-16.11387 0,0 -5.7608,0.34615 -8.64269,0.51772 -5.62232,-0.59476 -11.24541,-1.19049 -16.8696,-1.78724 -5.93259,-1.38145 -11.86594,-2.76386 -17.80041,-4.14728 -4.36623,-1.99577 -8.7333,-3.99246 -13.10145,-5.99019 -4.77567,-3.55687 -9.55215,-7.11461 -14.32972,-10.67342 -4.91685,-4.93056 -9.83452,-9.8619 -14.75328,-14.79435 -4.02134,-4.84769 -8.04353,-9.6962 -12.0668,-14.54579 -4.05013,-5.08774 -8.1011,-10.17627 -12.15315,-15.26592 -2.84925,-2.79131 -5.69939,-5.58351 -8.55059,-8.37676 -3.93019,-4.00471 -7.86122,-8.01027 -11.79334,-12.01691 -4.16075,-3.49038 -8.32235,-6.98163 -12.48503,-10.47395 -5.00565,-3.81194 -10.01211,-7.62474 -15.01967,-11.43862 -2.48493,-1.14391 -4.97074,-2.28878 -7.45761,-3.43466 -4.82343,-1.90048 -9.64766,-3.80187 -14.473,-5.70431 -2.78834,-0.6969 -5.57758,-1.39477 -8.36787,-2.09365 -4.51579,-1.37713 -13.5501,-4.13431 -13.5501,-4.13431 0,0 -3.48223,13.34147 -3.48223,13.34147 0,0 7.00524,2.41057 10.50635,3.61436 4.07023,3.43816 8.13929,6.87516 12.20744,10.31123 3.74827,4.04222 7.49538,8.08327 11.24157,12.12342 1.67379,2.31611 5.01826,6.9452 5.01826,6.9452 0,0 -6.38926,-4.5999 -9.58538,-6.90134 -3.87855,-2.53156 -7.75793,-5.064 -11.63839,-7.5975 -3.05462,-1.25111 -6.11011,-2.50318 -9.16667,-3.75627 -2.50359,-0.65473 -5.00809,-1.31043 -7.51364,-1.96715 -1.94956,-0.2912 -5.85157,-0.87659 -5.85157,-0.87659 0,0 5.77855,5.49466 8.66633,8.24049 3.86027,4.2316 7.71939,8.46204 11.57758,12.69155 3.68665,4.82661 7.40814,9.6325 11.11072,14.44726 2.18976,4.59307 4.37843,9.18495 6.56615,13.77593 1.63781,4.27109 3.27455,8.54102 4.91033,12.81003 1.08571,5.04296 2.17038,10.08471 3.25407,15.12558 0.70008,4.96215 1.39912,9.92311 2.09719,14.88316 0.001,2.76846 -0.0357,5.49673 -0.0551,8.2436 0.11394,5.48158 0.22688,10.96194 0.33881,16.44142 -0.48687,6.34183 -0.97472,12.68241 -1.46358,19.02211 -0.29963,3.76765 -0.90185,11.2997 -0.90185,11.2997 0,0 -0.46309,-8.79762 -0.69614,-13.19794 -0.15539,-3.06694 -0.31177,-6.13476 -0.46916,-9.20364 -0.35728,-4.60525 -0.71555,-9.21133 -1.07482,-13.81849 -0.74345,-5.22427 -1.48788,-10.44934 -2.23332,-15.67552 -1.12156,-5.21847 -2.24408,-10.43772 -3.36762,-15.65808 -1.35469,-5.29995 -2.71033,-10.60067 -4.06699,-15.9025 -2.31711,-4.82682 -4.63514,-9.65446 -6.95421,-14.48318 -2.19008,-3.35946 -4.38108,-6.71979 -6.57311,-10.08119 -3.03893,-2.3931 -6.07872,-4.7871 -9.11958,-7.18215 -2.58452,-1.70178 -5.16993,-3.40448 -7.75638,-5.10822 -2.23717,-0.39408 -6.71437,-1.18521 -6.71437,-1.18521 0,0 1.97705,5.4141 2.96408,8.11965 1.53422,5.83458 3.06737,11.66792 4.59956,17.50037 1.55443,6.96085 3.10779,13.92042 4.66019,20.87912 0.5009,5.56834 1.00077,11.13545 1.49966,16.70167 0.38655,8.87024 0.77207,17.73912 1.15661,26.60718 -0.83729,4.30865 -1.67556,8.61613 -2.51483,12.92269 -1.63336,6.54686 -3.26765,13.09248 -4.90298,19.63721 -4.53398,6.65948 -9.06878,13.3177 -13.60467,19.97504 -5.96579,7.61263 -11.93234,15.22398 -17.9,22.83446 -6.21003,6.73445 -12.42079,13.46764 -18.63268,20.19996 -4.65348,4.67929 -9.30778,9.35741 -13.96316,14.03461 -2.00368,1.94345 -4.00827,3.88581 -6.0139,5.82722 -1.97812,2.03316 -3.95716,4.06523 -5.93724,6.09635 -2.70869,3.81356 -5.41827,7.62597 -8.12891,11.43744 -3.52444,5.09651 -7.04974,10.19181 -10.57611,15.28623 -2.37485,4.12217 -4.75059,8.24318 -7.12738,12.36328 -2.25098,4.40122 -4.50287,8.80127 -6.75581,13.2004 -1.84768,5.06744 -3.69628,10.13368 -5.54592,15.19902 -1.74547,5.68236 -3.49188,11.36348 -5.23932,17.04372 -0.37988,2.99379 -1.14261,8.97816 -1.14261,8.97816 z" />
    <path
       style="fill:#000000;stroke:#000000;stroke-width:1px;stroke-linecap:butt;stroke-linejoin:miter;stroke-opacity:1"
       d="m 292.56215,230.65791 c 2.11367,-1.07941 4.22773,-2.15902 6.7729,-3.08987 2.54517,-0.93085 5.5214,-1.71312 8.08136,-2.27186 2.55995,-0.55875 4.70253,-0.89386 6.84597,-1.22911 -0.51552,0.92679 -1.03123,1.85392 -1.9129,2.8839 -0.88168,1.02998 -2.1297,2.16349 -3.55834,3.13455 -1.42863,0.97106 -3.03814,1.77978 -4.6496,2.27649 -1.61147,0.49671 -3.22528,0.6813 -4.71441,0.65961 -1.48914,-0.0217 -2.85378,-0.24997 -3.97703,-0.67802 -1.12325,-0.42805 -2.00616,-1.05727 -2.88795,-1.68569 z"
       id="path1530"
       inkscape:path-effect="#path-effect1532"
       inkscape:original-d="m 292.56215,230.65791 c 0,0 4.22834,-2.15782 6.34102,-3.23824 2.97736,-0.7813 5.95359,-1.56357 8.92889,-2.34685 2.14448,-0.33426 6.43032,-1.00575 6.43032,-1.00575 0,0 -1.03004,1.85458 -1.54656,2.78037 -1.24707,1.13455 -2.49509,2.26807 -3.74414,3.4006 -1.60857,0.80974 -3.21808,1.61845 -4.82861,2.42618 -1.61287,0.1856 -3.22668,0.37019 -4.84151,0.55379 -1.36371,-0.22728 -2.72835,-0.45555 -4.09403,-0.68483 -0.88081,-0.62744 -2.64538,-1.88527 -2.64538,-1.88527 z"
       inkscape:label="Ojo" />
    <path
       id="path1314"
       style="fill:#000000;stroke:#000000;stroke-width:1px;stroke-linecap:butt;stroke-linejoin:miter;stroke-opacity:1"
       inkscape:label="Cara"
       d="m 413.88086,182.45703 c -3.90189,-0.0143 -7.84173,0.25893 -11.37891,0.73828 -4.71623,0.63914 -8.71574,1.64233 -12.75781,3.1543 -4.04207,1.51197 -8.12668,3.53353 -12.54102,6.46094 -4.41433,2.92741 -9.15713,6.76108 -13.90039,10.5957 l 5.68555,13.28516 c -4.93213,-3.03076 -9.86329,-6.06109 -15.00976,-8.5918 -5.14647,-2.53071 -10.5084,-4.56143 -15.86914,-6.5918 l 13.35546,-11.14062 c -6.00988,0.29093 -12.01872,0.58261 -17.81054,1.06836 -5.79183,0.48575 -11.36608,1.16588 -17.20313,2.05078 -5.83704,0.8849 -11.93809,1.97504 -17.70312,3.38281 -5.76503,1.40778 -11.19417,3.13401 -16.30078,5.06836 -5.10662,1.93435 -9.8891,4.07544 -14.61719,6.77539 -4.72809,2.69995 -9.39995,5.95735 -14.07227,9.21484 l 2.86133,-11.44726 c -3.78988,1.86825 -7.57892,3.73708 -10.45898,5.68945 -2.88007,1.95237 -4.84939,3.98723 -6.49414,6.55469 -1.64476,2.56746 -2.96427,5.66542 -3.83204,8.12305 -0.86776,2.45762 -1.28511,4.27499 -1.70117,6.09179 l -31.81836,26.83789 c 5.26559,-1.06463 10.53152,-2.12822 15.66211,-2.54296 5.1306,-0.41475 10.12665,-0.18165 13.91602,0.0957 3.78936,0.27734 6.37167,0.5983 8.95508,0.91797 l 1.19531,4.24023 c 5.76863,-0.97502 11.53803,-1.95005 16.50586,-2.18164 4.96783,-0.23159 9.13366,0.28114 12.89453,1.20508 3.76087,0.92394 7.11564,2.26037 9.51562,3.65039 2.39999,1.39002 3.84507,2.83211 4.89649,4.06055 1.05141,1.22844 1.70933,2.24073 2.36719,3.2539 4.06094,0.23226 8.12258,0.46565 12.48632,1.29492 4.36375,0.82928 9.03028,2.25403 13.45899,3.94532 4.42871,1.69129 8.6191,3.64881 12.46094,5.74218 3.84183,2.09337 7.33353,4.3226 10.82617,6.55274 -3.58016,-1.32958 -7.15942,-2.66011 -11.23047,-4.0293 -4.07105,-1.36919 -8.63167,-2.7773 -12.95313,-3.88281 -4.32145,-1.10551 -8.40286,-1.90687 -12.1289,-2.51953 -3.72604,-0.61267 -7.09771,-1.03591 -10.46875,-1.45899 0.71411,1.80248 1.42844,3.60633 1.85742,5.03711 0.42898,1.43079 0.57263,2.48772 0.7168,3.54688 4.00236,0.43236 8.00636,0.86435 12.1875,1.89648 4.18113,1.03214 8.53992,2.66516 13.3125,4.80274 4.77258,2.13757 9.95763,4.77995 14.49609,7.57031 4.53847,2.79036 8.42872,5.72703 12.32031,8.66406 -5.56589,-2.63802 -11.12946,-5.27501 -16.30078,-7.45508 -5.17131,-2.18007 -9.94873,-3.90214 -14.39062,-5.26562 -4.4419,-1.36349 -8.54762,-2.3697 -11.95508,-3.12305 -3.40746,-0.75334 -6.11643,-1.25411 -8.82422,-1.75586 0.22075,2.6408 0.44174,5.28259 0.47266,7.90821 0.0309,2.62561 -0.12835,5.23519 -0.28711,7.8457 3.20886,1.72679 6.41826,3.45303 8.82031,5.17969 2.40205,1.72665 3.99754,3.45361 5.38086,5.17382 1.38331,1.72022 2.55427,3.43447 3.48242,4.9961 0.92815,1.56163 1.61368,2.96991 2.29883,4.3789 0.0197,-1.97459 0.0386,-3.94964 -0.51953,-6.41992 -0.55817,-2.47027 -1.69333,-5.4348 -2.88477,-8.17187 -1.19144,-2.73708 -2.43908,-5.24787 -3.68554,-7.75586 5.60937,1.77501 11.21886,3.55174 15.77539,5.42773 4.55652,1.876 8.06008,3.85273 11.27929,6.03125 3.21921,2.17852 6.1557,4.55811 9.61524,7.53321 3.45954,2.97509 7.44205,6.54395 11.38867,10.39648 3.94662,3.85253 7.85462,7.98807 11.76367,12.12305 -0.10831,-5.18872 -0.21501,-10.37766 -0.48437,-15.00586 -0.26937,-4.6282 -0.70165,-8.69465 -1.33399,-13.14453 -0.63234,-4.44988 -1.46613,-9.28288 -2.60156,-14.11524 -1.13543,-4.83236 -2.57257,-9.66492 -4.19922,-13.98633 -1.62665,-4.3214 -3.44316,-8.13033 -5.74219,-11.875 -2.29902,-3.74466 -5.07905,-7.42412 -7.32226,-9.97265 -2.24322,-2.54853 -3.95112,-3.96703 -5.65625,-5.38477 4.22636,1.28672 8.45496,2.57267 11.82422,4.26172 3.36925,1.68905 5.88088,3.77993 8.76367,6.69336 2.88279,2.91343 6.13522,6.64896 9.38867,10.38477 -0.54156,-3.1222 -1.0825,-6.24319 -1.93164,-9.61524 -0.84915,-3.37204 -2.00645,-6.99441 -3.36914,-10.20312 -1.3627,-3.20872 -2.93139,-6.00427 -4.59961,-8.52539 -1.66822,-2.52113 -3.43581,-4.76818 -4.86719,-6.41797 -1.43138,-1.6498 -2.52799,-2.70301 -3.62305,-3.75586 3.19447,1.13851 6.39092,2.27853 9.15039,3.67773 2.75948,1.3992 5.08388,3.0572 7.67188,5.45899 2.588,2.40178 5.43871,5.54656 7.82031,8.6914 2.38161,3.14485 4.29328,6.28788 6.20508,9.4336 0.36954,-3.17772 0.73977,-6.35335 0.72852,-9.92969 -0.0113,-3.57635 -0.40354,-7.55141 -0.96289,-11.24414 -0.55936,-3.69273 -1.28642,-7.10387 -2.34375,-10.39844 -1.05734,-3.29457 -2.44565,-6.47225 -3.83594,-8.98828 -1.39029,-2.51603 -2.78324,-4.37146 -4.17578,-6.22461 2.19789,-0.84455 4.39652,-1.68925 6.51562,-2.05469 2.11911,-0.36544 4.15875,-0.25223 5.96875,-0.14258 1.81,0.10966 3.38856,0.21639 4.96875,0.32227 0.0911,-2.07914 0.18202,-4.15801 -0.19336,-6.78906 -0.37537,-2.63105 -1.21674,-5.81276 -2.16406,-8.375 -0.94732,-2.56224 -2.00003,-4.50421 -2.7207,-5.71289 -0.72068,-1.20868 -1.11121,-1.6862 -1.5,-2.16211 3.1959,-1.8601 6.39207,-3.72032 9.83203,-5.33203 3.43996,-1.61171 7.12391,-2.97441 10.60351,-4.03711 3.47961,-1.06271 6.75429,-1.82555 9.85938,-2.24805 3.10509,-0.4225 6.04,-0.50491 8.97461,-0.58789 0.0377,3.61772 0.0745,7.23744 -0.15625,10.51953 -0.23076,3.28209 -0.72968,6.22759 -1.47461,9.04297 -0.74494,2.81538 -1.73588,5.50053 -3.10938,7.7832 -1.3735,2.28267 -3.12936,4.16326 -5.30468,6.19336 -2.17533,2.0301 -4.76928,4.20815 -7.5293,6.1543 -2.76002,1.94615 -5.68739,3.66143 -8.61328,5.375 0.1146,3.21992 0.22937,6.43953 0.125,9.36719 -0.10437,2.92765 -0.42777,5.56368 -0.76953,8.11718 -0.34177,2.5535 -0.70219,5.02463 -1.0625,7.4961 1.93024,-2.82129 3.86192,-5.6437 5.24609,-8.66211 1.38418,-3.01842 2.22242,-6.23327 3.06055,-9.44922 3.70876,-2.22378 7.41671,-4.44783 11.44531,-8.19336 4.0286,-3.74553 8.37822,-9.01284 11.3418,-13.45508 2.96357,-4.44223 4.54083,-8.05965 5.67187,-11.89648 1.13104,-3.83683 1.81508,-7.89312 2.05469,-11.79883 0.23961,-3.90571 0.0345,-7.66301 -0.16992,-11.41797 -4.7717,-0.84986 -9.54183,-1.6985 -14.64453,-1.98633 -1.27568,-0.072 -2.57242,-0.10852 -3.87305,-0.11328 z m -75.79297,31.91602 c -2.67194,1.55956 -5.3435,3.11777 -7.95312,5.13086 -2.60963,2.01308 -5.15654,4.48108 -6.91211,6.39062 -1.75558,1.90954 -2.71958,3.26082 -3.6836,4.61328 2.98511,1.75355 5.97287,3.50727 8.61914,5.33789 2.64628,1.83063 4.95243,3.73868 7.07618,5.79102 2.12374,2.05233 4.06337,4.24887 5.41601,6.07031 1.35265,1.82144 2.11736,3.2672 2.88281,4.71289 -2.82517,-1.57706 -5.64799,-3.15339 -9.33984,-4.82617 -3.69185,-1.67278 -8.25014,-3.4414 -12.07227,-4.76758 -3.82212,-1.32617 -6.90798,-2.21094 -9.80664,-2.87305 -2.89865,-0.6621 -5.6105,-1.10178 -8.66992,-1.48242 -3.05942,-0.38063 -6.46705,-0.70195 -9.35742,-0.88867 -2.89038,-0.18671 -5.26334,-0.23873 -7.63672,-0.29101 l -14.77148,7.49414 c 1.20969,0.68433 2.42024,1.37096 3.58789,2.17773 1.16764,0.80677 2.29388,1.73466 3.32812,2.93945 1.03425,1.20479 1.97754,2.68521 2.63867,3.92578 0.66114,1.24058 1.04052,2.23946 1.41993,3.24024 -1.60845,-1.38272 -3.21739,-2.76453 -4.94532,-4.00586 -1.72792,-1.24133 -3.57371,-2.34066 -5.2207,-3.14258 -1.64699,-0.80192 -3.09455,-1.30612 -4.44141,-1.59961 -1.34685,-0.29349 -2.5937,-0.3761 -3.66992,-0.32812 -1.07622,0.048 -1.98162,0.22732 -2.88672,0.40625 3.59942,-4.04556 7.19771,-8.09042 10.32227,-11.33008 3.12456,-3.23966 5.7754,-5.67323 8.22266,-7.70898 2.44725,-2.03576 4.69075,-3.67278 6.93554,-5.31055 l -0.51953,4.48437 c 3.30324,-1.98031 6.60695,-3.95978 10.43555,-5.80078 3.82859,-1.841 8.1823,-3.54337 12.45898,-4.84375 4.27668,-1.30037 8.47606,-2.19963 13.2207,-2.71875 4.74465,-0.51912 10.03273,-0.65767 15.32227,-0.79687 z" />
  </g>
</svg>
